0
SECTION
2
HEADER
9
$INSUNITS
70
4
9
$ACADVER
1
AC1014
9
$HANDSEED
5
FFFF
0
ENDSEC
0
SECTION
2
TABLES
0
TABLE
2
VPORT
5
8
100
AcDbSymbolTable
0
ENDTAB
0
TABLE
2
LTYPE
5
5
100
AcDbSymbolTable
0
LTYPE
5
14
100
AcDbSymbolTableRecord
100
AcDbLinetypeTableRecord
2
BYBLOCK
70
0
0
LTYPE
5
15
100
AcDbSymbolTableRecord
100
AcDbLinetypeTableRecord
2
BYLAYER
70
0
0
LTYPE
5
16
100
AcDbSymbolTableRecord
100
AcDbLinetypeTableRecord
2
DASHED
70
0
3
Dashed __ __ __ __ __ __ __ __ __ __ __ __ __ _
72
65
73
2
40
0.75
49
0.5
74
0
49
-0.25
74
0
0
ENDTAB
0
TABLE
2
LAYER
5
2
100
AcDbSymbolTable
70
2
0
LAYER
5
50
100
AcDbSymbolTableRecord
100
AcDbLayerTableRecord
2
0
70
0
62
7
6
CONTINUOUS
0
ENDTAB
0
TABLE
2
STYLE
5
3
100
AcDbSymbolTable
70
1
0
STYLE
5
11
100
AcDbSymbolTableRecord
100
AcDbTextStyleTableRecord
2
STANDARD
70
0
0
ENDTAB
0
TABLE
2
VIEW
5
6
100
AcDbSymbolTable
70
0
0
ENDTAB
0
TABLE
2
UCS
5
7
100
AcDbSymbolTable
70
0
0
ENDTAB
0
TABLE
2
APPID
5
9
100
AcDbSymbolTable
70
2
0
APPID
5
12
100
AcDbSymbolTableRecord
100
AcDbRegAppTableRecord
2
ACAD
70
0
0
ENDTAB
0
TABLE
2
DIMSTYLE
5
A
100
AcDbSymbolTable
70
1
0
ENDTAB
0
TABLE
2
BLOCK_RECORD
5
1
100
AcDbSymbolTable
70
1
0
BLOCK_RECORD
5
1F
100
AcDbSymbolTableRecord
100
AcDbBlockTableRecord
2
*MODEL_SPACE
0
BLOCK_RECORD
5
1B
100
AcDbSymbolTableRecord
100
AcDbBlockTableRecord
2
*PAPER_SPACE
0
ENDTAB
0
ENDSEC
0
SECTION
2
BLOCKS
0
BLOCK
5
20
100
AcDbEntity
100
AcDbBlockBegin
2
*MODEL_SPACE
0
ENDBLK
5
21
100
AcDbEntity
100
AcDbBlockEnd
0
BLOCK
5
1C
100
AcDbEntity
100
AcDbBlockBegin
2
*PAPER_SPACE
0
ENDBLK
5
1D
100
AcDbEntity
100
AcDbBlockEnd
0
ENDSEC
0
SECTION
2
ENTITIES
0
LWPOLYLINE
5
100
100
AcDbEntity
8
0
100
AcDbPolyline
90
4
70
1
43
0.0
10
-17.130000000000003
20
3.8000000000000029
10
-17.129999999999999
20
4.3000000000000025
42
-0.99999999999999989
10
-15.43
20
4.3000000000000025
10
-15.429999999999996
20
3.8000000000000029
42
-0.99999999999999989
0
CIRCLE
5
101
100
AcDbEntity
8
0
100
AcDbCircle
10
-11.449999999999999
20
2.2500000000000004
30
0
40
0.50000000000000044
210
0
220
0
230
1
0
CIRCLE
5
102
100
AcDbEntity
8
0
100
AcDbCircle
10
-2.1499999999999999
20
2.5
30
0
40
1.4250000000000003
210
0
220
0
230
1
0
LWPOLYLINE
5
103
100
AcDbEntity
8
0
100
AcDbPolyline
90
4
70
1
43
0.0
10
-7.4500000000000011
20
3.8000000000000012
10
-7.4500000000000011
20
4.2999999999999998
42
-0.99999999999999989
10
-5.7500000000000018
20
4.3000000000000007
10
-5.7500000000000036
20
3.8000000000000025
42
-0.99999999999999989
0
CIRCLE
5
104
100
AcDbEntity
8
0
100
AcDbCircle
10
-25.449999999999999
20
6.7999999999999972
30
0
40
0.44999999999999929
210
0
220
0
230
1
0
CIRCLE
5
105
100
AcDbEntity
8
0
100
AcDbCircle
10
-8.9399999999999995
20
2.2500000000000004
30
0
40
0.50000000000000044
210
0
220
0
230
1
0
CIRCLE
5
106
100
AcDbEntity
8
0
100
AcDbCircle
10
-25.449999999999999
20
2.7999999999999972
30
0
40
0.44999999999999929
210
0
220
0
230
1
0
CIRCLE
5
107
100
AcDbEntity
8
0
100
AcDbCircle
10
-14.000000000000002
20
2.2500000000000004
30
0
40
0.50000000000000044
210
0
220
0
230
1
0
CIRCLE
5
108
100
AcDbEntity
8
0
100
AcDbCircle
10
-25.449999999999999
20
4.7999999999999972
30
0
40
0.44999999999999929
210
0
220
0
230
1
0
CIRCLE
5
109
100
AcDbEntity
8
0
100
AcDbCircle
10
-21.200000000000003
20
3.899999999999999
30
0
40
1.4250000000000005
210
0
220
0
230
1
0
LWPOLYLINE
5
110
100
AcDbEntity
8
0
100
AcDbPolyline
90
18
70
1
43
0.0
10
-16.085164654424496
20
-2.0816681711721685e-16
42
0.25226365250224697
10
-15.667582327212246
20
0.2250000000000002
42
-0.2522636552018232
10
-15.249999994923872
20
0.45000000000000062
10
-7.6500000043035179
20
0.44999999999999996
42
-0.25226365479093782
10
-7.2324176727877498
20
0.22499999999999987
42
0.25226365250224553
10
-6.8148353455754975
20
4.163336342344337e-16
10
-0.50000000000000044
20
0
42
0.41421356237309531
10
0
20
0.5
10
0
20
5.25
42
0.41421356237309509
10
-0.49999999999999994
20
5.7500000000000009
10
-11.47537879754125
20
5.7500000000000009
42
-0.19891236737965939
10
-12.889592359914344
20
6.3357864376269069
10
-14.301902961143716
20
7.7480970388562787
42
0.19891236737965784
10
-16.599999999999994
20
8.6999999999999993
10
-27
20
8.6999999999999975
42
0.41421354321181902
10
-27.5
20
8.2000000327103439
10
-27.5
20
0.50000003271034488
42
0.41421358153437154
10
-27
20
1.5376804476935572e-15
0
ENDSEC
0
SECTION
2
OBJECTS
0
DICTIONARY
5
C
100
AcDbDictionary
3
ACAD_GROUP
350
D
3
ACAD_MLINESTYLE
350
17
0
DICTIONARY
5
D
100
AcDbDictionary
0
DICTIONARY
5
1A
330
C
100
AcDbDictionary
0
DICTIONARY
5
17
100
AcDbDictionary
0
ENDSEC
0
EOF
