%TF.GenerationSoftware,KiCad,Pcbnew,8.0.9*%
%TF.CreationDate,2025-07-15T23:28:47+09:00*%
%TF.ProjectId,KPUEncoderPCB,4b505545-6e63-46f6-9465-725043422e6b,rev?*%
%TF.SameCoordinates,Original*%
%TF.FileFunction,Legend,Bot*%
%TF.FilePolarity,Positive*%
%FSLAX46Y46*%
G04 Gerber Fmt 4.6, Leading zero omitted, Abs format (unit mm)*
G04 Created by KiCad (PCBNEW 8.0.9) date 2025-07-15 23:28:47*
%MOMM*%
%LPD*%
G01*
G04 APERTURE LIST*
%ADD10C,0.125000*%
%ADD11C,2.000000*%
%ADD12O,2.300000X2.800000*%
%ADD13C,2.850000*%
G04 APERTURE END LIST*
D10*
G36*
X44054085Y-28005501D02*
G01*
X43921632Y-28005501D01*
X43921632Y-27673330D01*
X43744959Y-27673330D01*
X43737486Y-27673330D01*
X43562058Y-28005501D01*
X43411543Y-28005501D01*
X43602126Y-27651947D01*
X43578376Y-27641698D01*
X43540505Y-27619010D01*
X43508907Y-27590870D01*
X43483583Y-27557278D01*
X43470107Y-27532234D01*
X43455121Y-27491548D01*
X43446408Y-27447117D01*
X43443930Y-27404480D01*
X43443946Y-27403649D01*
X43578251Y-27403649D01*
X43581585Y-27443730D01*
X43594714Y-27485492D01*
X43620396Y-27521985D01*
X43631762Y-27531863D01*
X43671583Y-27552235D01*
X43713507Y-27561495D01*
X43757831Y-27564129D01*
X43921632Y-27564129D01*
X43921632Y-27237772D01*
X43758869Y-27237772D01*
X43741393Y-27238164D01*
X43699375Y-27243046D01*
X43656232Y-27256995D01*
X43620811Y-27282407D01*
X43596580Y-27316872D01*
X43582408Y-27358892D01*
X43578251Y-27403649D01*
X43443946Y-27403649D01*
X43444222Y-27389502D01*
X43448601Y-27346538D01*
X43459630Y-27302268D01*
X43477147Y-27261647D01*
X43481405Y-27253967D01*
X43506663Y-27218731D01*
X43538530Y-27188765D01*
X43577006Y-27164072D01*
X43617236Y-27146911D01*
X43657408Y-27136371D01*
X43701732Y-27130270D01*
X43743921Y-27128571D01*
X44054085Y-27128571D01*
X44054085Y-28005501D01*
G37*
G36*
X42981383Y-27128571D02*
G01*
X42981383Y-28005501D01*
X43112590Y-28005501D01*
X43112590Y-27252512D01*
X43118403Y-27252512D01*
X43324141Y-27404065D01*
X43324141Y-27269536D01*
X43134804Y-27128571D01*
X42981383Y-27128571D01*
G37*
G36*
X42705474Y-28018787D02*
G01*
X42746152Y-28009056D01*
X42766510Y-27993875D01*
X42787920Y-27958273D01*
X42791423Y-27932631D01*
X42781692Y-27891774D01*
X42766510Y-27871387D01*
X42730893Y-27849621D01*
X42705474Y-27846059D01*
X42664780Y-27855953D01*
X42644645Y-27871387D01*
X42623414Y-27907085D01*
X42619940Y-27932631D01*
X42629591Y-27973584D01*
X42644645Y-27993875D01*
X42681988Y-28015844D01*
X42705474Y-28018787D01*
G37*
G36*
X42218585Y-27118199D02*
G01*
X42260755Y-27126942D01*
X42307077Y-27145128D01*
X42348728Y-27171707D01*
X42379869Y-27200268D01*
X42407766Y-27234658D01*
X42417923Y-27249923D01*
X42440447Y-27291323D01*
X42458877Y-27337345D01*
X42470671Y-27377491D01*
X42479845Y-27420595D01*
X42486397Y-27466658D01*
X42490329Y-27515679D01*
X42491639Y-27567659D01*
X42491558Y-27580994D01*
X42489597Y-27632444D01*
X42485021Y-27680872D01*
X42477831Y-27726276D01*
X42468027Y-27768657D01*
X42452094Y-27817382D01*
X42432077Y-27861382D01*
X42407974Y-27900659D01*
X42402679Y-27907927D01*
X42374227Y-27940804D01*
X42342481Y-27967914D01*
X42300037Y-27992831D01*
X42261043Y-28007251D01*
X42218754Y-28015903D01*
X42173171Y-28018787D01*
X42127419Y-28015898D01*
X42085011Y-28007231D01*
X42038538Y-27989203D01*
X41996883Y-27962855D01*
X41965849Y-27934542D01*
X41938161Y-27900452D01*
X41928054Y-27885260D01*
X41905642Y-27844009D01*
X41887304Y-27798085D01*
X41875567Y-27757982D01*
X41866439Y-27714887D01*
X41859919Y-27668802D01*
X41856007Y-27619726D01*
X41854708Y-27567866D01*
X41986118Y-27567866D01*
X41986545Y-27597740D01*
X41989154Y-27644668D01*
X41994135Y-27688017D01*
X42003244Y-27735312D01*
X42015769Y-27777454D01*
X42034698Y-27820108D01*
X42057857Y-27854973D01*
X42089216Y-27884333D01*
X42130729Y-27903994D01*
X42173171Y-27909586D01*
X42215640Y-27903994D01*
X42257244Y-27884333D01*
X42288738Y-27854973D01*
X42312060Y-27820108D01*
X42326115Y-27790357D01*
X42339836Y-27749932D01*
X42350127Y-27704354D01*
X42356083Y-27662437D01*
X42359656Y-27616941D01*
X42360847Y-27567866D01*
X42360419Y-27538022D01*
X42357798Y-27491104D01*
X42352796Y-27447713D01*
X42343648Y-27400301D01*
X42331070Y-27357969D01*
X42312060Y-27315002D01*
X42288738Y-27279732D01*
X42257244Y-27250031D01*
X42215640Y-27230142D01*
X42173171Y-27224485D01*
X42130729Y-27230116D01*
X42089216Y-27249914D01*
X42057857Y-27279479D01*
X42034698Y-27314586D01*
X42020702Y-27344527D01*
X42007039Y-27385166D01*
X41996792Y-27430943D01*
X41990862Y-27473016D01*
X41987304Y-27518657D01*
X41986118Y-27567866D01*
X41854708Y-27567866D01*
X41854703Y-27567659D01*
X41854785Y-27554386D01*
X41856756Y-27503146D01*
X41861354Y-27454865D01*
X41868580Y-27409542D01*
X41878433Y-27367177D01*
X41894444Y-27318382D01*
X41914561Y-27274209D01*
X41938784Y-27234658D01*
X41944091Y-27227314D01*
X41972579Y-27194089D01*
X42004321Y-27166694D01*
X42046707Y-27141514D01*
X42085607Y-27126942D01*
X42127762Y-27118199D01*
X42173171Y-27115284D01*
X42218585Y-27118199D01*
G37*
G36*
X41388211Y-28005501D02*
G01*
X41388211Y-27907303D01*
X41094241Y-27597761D01*
X41062542Y-27563104D01*
X41034917Y-27531172D01*
X41008709Y-27498505D01*
X40991891Y-27475481D01*
X40970637Y-27436594D01*
X40959193Y-27395605D01*
X40957013Y-27367111D01*
X40962213Y-27324892D01*
X40979750Y-27286389D01*
X41001025Y-27262685D01*
X41036944Y-27239407D01*
X41078995Y-27226873D01*
X41110434Y-27224485D01*
X41154676Y-27229490D01*
X41195441Y-27246364D01*
X41220881Y-27266837D01*
X41246056Y-27302630D01*
X41258926Y-27342518D01*
X41262194Y-27380190D01*
X41389457Y-27380190D01*
X41386567Y-27337124D01*
X41376576Y-27292894D01*
X41359448Y-27252476D01*
X41352918Y-27241094D01*
X41327336Y-27206340D01*
X41296524Y-27176817D01*
X41260481Y-27152524D01*
X41252644Y-27148294D01*
X41211147Y-27130886D01*
X41166325Y-27119926D01*
X41123143Y-27115574D01*
X41108150Y-27115284D01*
X41063282Y-27117912D01*
X41021632Y-27125794D01*
X40979129Y-27140716D01*
X40963241Y-27148501D01*
X40926821Y-27171423D01*
X40895672Y-27198927D01*
X40867496Y-27234473D01*
X40865251Y-27237980D01*
X40845039Y-27278593D01*
X40833945Y-27318622D01*
X40829785Y-27361611D01*
X40829750Y-27366073D01*
X40833167Y-27407757D01*
X40843420Y-27448885D01*
X40847604Y-27460534D01*
X40866362Y-27500068D01*
X40889138Y-27536518D01*
X40909678Y-27564752D01*
X40937543Y-27599304D01*
X40967137Y-27633325D01*
X40996756Y-27665649D01*
X41029853Y-27700356D01*
X41034865Y-27705509D01*
X41204687Y-27885919D01*
X40816463Y-27885919D01*
X40816463Y-28005501D01*
X41388211Y-28005501D01*
G37*
G36*
X40399953Y-27118199D02*
G01*
X40442123Y-27126942D01*
X40488445Y-27145128D01*
X40530096Y-27171707D01*
X40561237Y-27200268D01*
X40589134Y-27234658D01*
X40599291Y-27249923D01*
X40621815Y-27291323D01*
X40640244Y-27337345D01*
X40652039Y-27377491D01*
X40661213Y-27420595D01*
X40667765Y-27466658D01*
X40671697Y-27515679D01*
X40673007Y-27567659D01*
X40672925Y-27580994D01*
X40670965Y-27632444D01*
X40666389Y-27680872D01*
X40659199Y-27726276D01*
X40649395Y-27768657D01*
X40633462Y-27817382D01*
X40613445Y-27861382D01*
X40589342Y-27900659D01*
X40584047Y-27907927D01*
X40555595Y-27940804D01*
X40523849Y-27967914D01*
X40481405Y-27992831D01*
X40442411Y-28007251D01*
X40400122Y-28015903D01*
X40354539Y-28018787D01*
X40308786Y-28015898D01*
X40266379Y-28007231D01*
X40219906Y-27989203D01*
X40178250Y-27962855D01*
X40147217Y-27934542D01*
X40119528Y-27900452D01*
X40109422Y-27885260D01*
X40087009Y-27844009D01*
X40068671Y-27798085D01*
X40056935Y-27757982D01*
X40047807Y-27714887D01*
X40041287Y-27668802D01*
X40037375Y-27619726D01*
X40036076Y-27567866D01*
X40167486Y-27567866D01*
X40167913Y-27597740D01*
X40170522Y-27644668D01*
X40175503Y-27688017D01*
X40184612Y-27735312D01*
X40197136Y-27777454D01*
X40216065Y-27820108D01*
X40239225Y-27854973D01*
X40270583Y-27884333D01*
X40312096Y-27903994D01*
X40354539Y-27909586D01*
X40397007Y-27903994D01*
X40438612Y-27884333D01*
X40470106Y-27854973D01*
X40493428Y-27820108D01*
X40507483Y-27790357D01*
X40521204Y-27749932D01*
X40531495Y-27704354D01*
X40537451Y-27662437D01*
X40541024Y-27616941D01*
X40542215Y-27567866D01*
X40541786Y-27538022D01*
X40539166Y-27491104D01*
X40534163Y-27447713D01*
X40525016Y-27400301D01*
X40512438Y-27357969D01*
X40493428Y-27315002D01*
X40470106Y-27279732D01*
X40438612Y-27250031D01*
X40397007Y-27230142D01*
X40354539Y-27224485D01*
X40312096Y-27230116D01*
X40270583Y-27249914D01*
X40239225Y-27279479D01*
X40216065Y-27314586D01*
X40202070Y-27344527D01*
X40188407Y-27385166D01*
X40178160Y-27430943D01*
X40172230Y-27473016D01*
X40168672Y-27518657D01*
X40167486Y-27567866D01*
X40036076Y-27567866D01*
X40036071Y-27567659D01*
X40036153Y-27554386D01*
X40038123Y-27503146D01*
X40042722Y-27454865D01*
X40049947Y-27409542D01*
X40059800Y-27367177D01*
X40075812Y-27318382D01*
X40095929Y-27274209D01*
X40120151Y-27234658D01*
X40125458Y-27227314D01*
X40153947Y-27194089D01*
X40185689Y-27166694D01*
X40228074Y-27141514D01*
X40266975Y-27126942D01*
X40309130Y-27118199D01*
X40354539Y-27115284D01*
X40399953Y-27118199D01*
G37*
G36*
X39886802Y-28005501D02*
G01*
X39886802Y-27907303D01*
X39592831Y-27597761D01*
X39561132Y-27563104D01*
X39533507Y-27531172D01*
X39507300Y-27498505D01*
X39490481Y-27475481D01*
X39469227Y-27436594D01*
X39457783Y-27395605D01*
X39455603Y-27367111D01*
X39460804Y-27324892D01*
X39478340Y-27286389D01*
X39499616Y-27262685D01*
X39535535Y-27239407D01*
X39577585Y-27226873D01*
X39609024Y-27224485D01*
X39653266Y-27229490D01*
X39694031Y-27246364D01*
X39719471Y-27266837D01*
X39744646Y-27302630D01*
X39757517Y-27342518D01*
X39760785Y-27380190D01*
X39888047Y-27380190D01*
X39885157Y-27337124D01*
X39875166Y-27292894D01*
X39858038Y-27252476D01*
X39851509Y-27241094D01*
X39825927Y-27206340D01*
X39795114Y-27176817D01*
X39759071Y-27152524D01*
X39751235Y-27148294D01*
X39709738Y-27130886D01*
X39664916Y-27119926D01*
X39621733Y-27115574D01*
X39606741Y-27115284D01*
X39561872Y-27117912D01*
X39520222Y-27125794D01*
X39477720Y-27140716D01*
X39461831Y-27148501D01*
X39425411Y-27171423D01*
X39394262Y-27198927D01*
X39366086Y-27234473D01*
X39363841Y-27237980D01*
X39343629Y-27278593D01*
X39332535Y-27318622D01*
X39328375Y-27361611D01*
X39328340Y-27366073D01*
X39331758Y-27407757D01*
X39342010Y-27448885D01*
X39346195Y-27460534D01*
X39364952Y-27500068D01*
X39387729Y-27536518D01*
X39408269Y-27564752D01*
X39436133Y-27599304D01*
X39465727Y-27633325D01*
X39495347Y-27665649D01*
X39528444Y-27700356D01*
X39533456Y-27705509D01*
X39703278Y-27885919D01*
X39315054Y-27885919D01*
X39315054Y-28005501D01*
X39886802Y-28005501D01*
G37*
G36*
X38884478Y-28018787D02*
G01*
X38928525Y-28016357D01*
X38969814Y-28009065D01*
X39012454Y-27995263D01*
X39028557Y-27988062D01*
X39065618Y-27966478D01*
X39100577Y-27937537D01*
X39129453Y-27903151D01*
X39151072Y-27864205D01*
X39164547Y-27821875D01*
X39169729Y-27780455D01*
X39040806Y-27780455D01*
X39030482Y-27823247D01*
X39006932Y-27859187D01*
X38991603Y-27873463D01*
X38955518Y-27895476D01*
X38914529Y-27907329D01*
X38884478Y-27909586D01*
X38840929Y-27904619D01*
X38798833Y-27887681D01*
X38765843Y-27861852D01*
X38762821Y-27858723D01*
X38737531Y-27824155D01*
X38721607Y-27784033D01*
X38715051Y-27738356D01*
X38714863Y-27728554D01*
X38718598Y-27687087D01*
X38730973Y-27646646D01*
X38737493Y-27633262D01*
X38762448Y-27597915D01*
X38794884Y-27570506D01*
X38799774Y-27567451D01*
X38839309Y-27550165D01*
X38880817Y-27543580D01*
X38890291Y-27543369D01*
X38932260Y-27547411D01*
X38969389Y-27557693D01*
X39008838Y-27576436D01*
X39032709Y-27594647D01*
X39154781Y-27577001D01*
X39106409Y-27128571D01*
X38628292Y-27128571D01*
X38628292Y-27237772D01*
X38995547Y-27237772D01*
X39022744Y-27492713D01*
X39018176Y-27492713D01*
X38984194Y-27466605D01*
X38950497Y-27450569D01*
X38909527Y-27438796D01*
X38865638Y-27434232D01*
X38859565Y-27434168D01*
X38816435Y-27437140D01*
X38771711Y-27447415D01*
X38730352Y-27465029D01*
X38718600Y-27471744D01*
X38682488Y-27497857D01*
X38651485Y-27529485D01*
X38625591Y-27566627D01*
X38621025Y-27574717D01*
X38603764Y-27613114D01*
X38592152Y-27654499D01*
X38586189Y-27698873D01*
X38585317Y-27724817D01*
X38588355Y-27771118D01*
X38597469Y-27814495D01*
X38612660Y-27854950D01*
X38623724Y-27876162D01*
X38647543Y-27911297D01*
X38676026Y-27941966D01*
X38709173Y-27968169D01*
X38729603Y-27980795D01*
X38769217Y-27999161D01*
X38811918Y-28011515D01*
X38857706Y-28017860D01*
X38884478Y-28018787D01*
G37*
G36*
X38181055Y-27118199D02*
G01*
X38223225Y-27126942D01*
X38269548Y-27145128D01*
X38311199Y-27171707D01*
X38342340Y-27200268D01*
X38370237Y-27234658D01*
X38380393Y-27249923D01*
X38402918Y-27291323D01*
X38421347Y-27337345D01*
X38433142Y-27377491D01*
X38442315Y-27420595D01*
X38448868Y-27466658D01*
X38452799Y-27515679D01*
X38454110Y-27567659D01*
X38454028Y-27580994D01*
X38452067Y-27632444D01*
X38447492Y-27680872D01*
X38440302Y-27726276D01*
X38430497Y-27768657D01*
X38414565Y-27817382D01*
X38394547Y-27861382D01*
X38370444Y-27900659D01*
X38365149Y-27907927D01*
X38336698Y-27940804D01*
X38304952Y-27967914D01*
X38262507Y-27992831D01*
X38223513Y-28007251D01*
X38181225Y-28015903D01*
X38135642Y-28018787D01*
X38089889Y-28015898D01*
X38047482Y-28007231D01*
X38001009Y-27989203D01*
X37959353Y-27962855D01*
X37928319Y-27934542D01*
X37900631Y-27900452D01*
X37890525Y-27885260D01*
X37868112Y-27844009D01*
X37849774Y-27798085D01*
X37838038Y-27757982D01*
X37828910Y-27714887D01*
X37822389Y-27668802D01*
X37818477Y-27619726D01*
X37817178Y-27567866D01*
X37948588Y-27567866D01*
X37949015Y-27597740D01*
X37951624Y-27644668D01*
X37956606Y-27688017D01*
X37965714Y-27735312D01*
X37978239Y-27777454D01*
X37997168Y-27820108D01*
X38020328Y-27854973D01*
X38051686Y-27884333D01*
X38093199Y-27903994D01*
X38135642Y-27909586D01*
X38178110Y-27903994D01*
X38219714Y-27884333D01*
X38251209Y-27854973D01*
X38274530Y-27820108D01*
X38288585Y-27790357D01*
X38302307Y-27749932D01*
X38312598Y-27704354D01*
X38318553Y-27662437D01*
X38322127Y-27616941D01*
X38323318Y-27567866D01*
X38322889Y-27538022D01*
X38320268Y-27491104D01*
X38315266Y-27447713D01*
X38306118Y-27400301D01*
X38293540Y-27357969D01*
X38274530Y-27315002D01*
X38251209Y-27279732D01*
X38219714Y-27250031D01*
X38178110Y-27230142D01*
X38135642Y-27224485D01*
X38093199Y-27230116D01*
X38051686Y-27249914D01*
X38020328Y-27279479D01*
X37997168Y-27314586D01*
X37983173Y-27344527D01*
X37969510Y-27385166D01*
X37959262Y-27430943D01*
X37953332Y-27473016D01*
X37949774Y-27518657D01*
X37948588Y-27567866D01*
X37817178Y-27567866D01*
X37817173Y-27567659D01*
X37817255Y-27554386D01*
X37819226Y-27503146D01*
X37823824Y-27454865D01*
X37831050Y-27409542D01*
X37840903Y-27367177D01*
X37856914Y-27318382D01*
X37877031Y-27274209D01*
X37901254Y-27234658D01*
X37906561Y-27227314D01*
X37935049Y-27194089D01*
X37966791Y-27166694D01*
X38009177Y-27141514D01*
X38048078Y-27126942D01*
X38090233Y-27118199D01*
X38135642Y-27115284D01*
X38181055Y-27118199D01*
G37*
G36*
X37663337Y-28005501D02*
G01*
X37286739Y-27248152D01*
X37722505Y-27248152D01*
X37722505Y-27128571D01*
X37147850Y-27128571D01*
X37147850Y-27250228D01*
X37524448Y-28005501D01*
X37663337Y-28005501D01*
G37*
G36*
X36697552Y-27128571D02*
G01*
X36697552Y-28005501D01*
X36828759Y-28005501D01*
X36828759Y-27252512D01*
X36834572Y-27252512D01*
X37040310Y-27404065D01*
X37040310Y-27269536D01*
X36850973Y-27128571D01*
X36697552Y-27128571D01*
G37*
G36*
X36249537Y-28018787D02*
G01*
X36293585Y-28016357D01*
X36334873Y-28009065D01*
X36377514Y-27995263D01*
X36393616Y-27988062D01*
X36430677Y-27966478D01*
X36465637Y-27937537D01*
X36494513Y-27903151D01*
X36516132Y-27864205D01*
X36529606Y-27821875D01*
X36534788Y-27780455D01*
X36405865Y-27780455D01*
X36395541Y-27823247D01*
X36371992Y-27859187D01*
X36356662Y-27873463D01*
X36320578Y-27895476D01*
X36279588Y-27907329D01*
X36249537Y-27909586D01*
X36205988Y-27904619D01*
X36163892Y-27887681D01*
X36130902Y-27861852D01*
X36127880Y-27858723D01*
X36102590Y-27824155D01*
X36086667Y-27784033D01*
X36080110Y-27738356D01*
X36079923Y-27728554D01*
X36083657Y-27687087D01*
X36096033Y-27646646D01*
X36102552Y-27633262D01*
X36127507Y-27597915D01*
X36159944Y-27570506D01*
X36164834Y-27567451D01*
X36204368Y-27550165D01*
X36245876Y-27543580D01*
X36255350Y-27543369D01*
X36297319Y-27547411D01*
X36334448Y-27557693D01*
X36373897Y-27576436D01*
X36397768Y-27594647D01*
X36519841Y-27577001D01*
X36471468Y-27128571D01*
X35993351Y-27128571D01*
X35993351Y-27237772D01*
X36360607Y-27237772D01*
X36387803Y-27492713D01*
X36383236Y-27492713D01*
X36349253Y-27466605D01*
X36315556Y-27450569D01*
X36274586Y-27438796D01*
X36230697Y-27434232D01*
X36224624Y-27434168D01*
X36181495Y-27437140D01*
X36136770Y-27447415D01*
X36095411Y-27465029D01*
X36083660Y-27471744D01*
X36047547Y-27497857D01*
X36016544Y-27529485D01*
X35990650Y-27566627D01*
X35986085Y-27574717D01*
X35968823Y-27613114D01*
X35957211Y-27654499D01*
X35951248Y-27698873D01*
X35950376Y-27724817D01*
X35953414Y-27771118D01*
X35962529Y-27814495D01*
X35977719Y-27854950D01*
X35988784Y-27876162D01*
X36012603Y-27911297D01*
X36041086Y-27941966D01*
X36074233Y-27968169D01*
X36094663Y-27980795D01*
X36134276Y-27999161D01*
X36176977Y-28011515D01*
X36222765Y-28017860D01*
X36249537Y-28018787D01*
G37*
G36*
X46854085Y-21550000D02*
G01*
X46854085Y-20673070D01*
X46721632Y-20673070D01*
X46721632Y-20953961D01*
X46723293Y-21129181D01*
X46698244Y-21094245D01*
X46672611Y-21060126D01*
X46655198Y-21037834D01*
X46627911Y-21004134D01*
X46598989Y-20969675D01*
X46578799Y-20946280D01*
X46335900Y-20673070D01*
X46167323Y-20673070D01*
X46507798Y-21054235D01*
X46163794Y-21550000D01*
X46320744Y-21550000D01*
X46600183Y-21143921D01*
X46721632Y-21275336D01*
X46721632Y-21550000D01*
X46854085Y-21550000D01*
G37*
G36*
X46036116Y-21550000D02*
G01*
X45903663Y-21550000D01*
X45903663Y-21244403D01*
X45726990Y-21244403D01*
X45684639Y-21242615D01*
X45640179Y-21236192D01*
X45599922Y-21225098D01*
X45559659Y-21207034D01*
X45551434Y-21202231D01*
X45514223Y-21175056D01*
X45483540Y-21142609D01*
X45459385Y-21104891D01*
X45451552Y-21088439D01*
X45436537Y-21045036D01*
X45428605Y-21003200D01*
X45425961Y-20958736D01*
X45425977Y-20958114D01*
X45560282Y-20958114D01*
X45560323Y-20962876D01*
X45565262Y-21007665D01*
X45578432Y-21047305D01*
X45602426Y-21084961D01*
X45616894Y-21099435D01*
X45653614Y-21121023D01*
X45695538Y-21132062D01*
X45739862Y-21135202D01*
X45903663Y-21135202D01*
X45903663Y-20782271D01*
X45740900Y-20782271D01*
X45723314Y-20782707D01*
X45681076Y-20788134D01*
X45637803Y-20803640D01*
X45602426Y-20831889D01*
X45599833Y-20835016D01*
X45576745Y-20872898D01*
X45564398Y-20912870D01*
X45560282Y-20958114D01*
X45425977Y-20958114D01*
X45426480Y-20938654D01*
X45431443Y-20895389D01*
X45441661Y-20854785D01*
X45459178Y-20812789D01*
X45465664Y-20800885D01*
X45491583Y-20764684D01*
X45524111Y-20733835D01*
X45559036Y-20710647D01*
X45599267Y-20692482D01*
X45639439Y-20681327D01*
X45683763Y-20674868D01*
X45725952Y-20673070D01*
X46036116Y-20673070D01*
X46036116Y-21550000D01*
G37*
G36*
X44927913Y-21563286D02*
G01*
X44972318Y-21561359D01*
X45014160Y-21555577D01*
X45058840Y-21544250D01*
X45100174Y-21527888D01*
X45109984Y-21523011D01*
X45146626Y-21500940D01*
X45182638Y-21471488D01*
X45213132Y-21437142D01*
X45230396Y-21411526D01*
X45250969Y-21369845D01*
X45263603Y-21330066D01*
X45270918Y-21287717D01*
X45272955Y-21248555D01*
X45272955Y-20673070D01*
X45140502Y-20673070D01*
X45140502Y-21239005D01*
X45136934Y-21281590D01*
X45124389Y-21324846D01*
X45102812Y-21363175D01*
X45083410Y-21385990D01*
X45047944Y-21413890D01*
X45006008Y-21432658D01*
X44963299Y-21441676D01*
X44927913Y-21443705D01*
X44881604Y-21440098D01*
X44840459Y-21429276D01*
X44800343Y-21408479D01*
X44773661Y-21385990D01*
X44746264Y-21350946D01*
X44727833Y-21310975D01*
X44718369Y-21266077D01*
X44716985Y-21239005D01*
X44716985Y-20673070D01*
X44583909Y-20673070D01*
X44583909Y-21248555D01*
X44586595Y-21293151D01*
X44594653Y-21335179D01*
X44608082Y-21374637D01*
X44626884Y-21411526D01*
X44653766Y-21449134D01*
X44686069Y-21481849D01*
X44719331Y-21506820D01*
X44747088Y-21523011D01*
X44787350Y-21540631D01*
X44830909Y-21553217D01*
X44877763Y-21560769D01*
X44921464Y-21563247D01*
X44927913Y-21563286D01*
G37*
G36*
X44141707Y-21550000D02*
G01*
X43998251Y-21550000D01*
X43921022Y-21313743D01*
X43580547Y-21313743D01*
X43500826Y-21550000D01*
X43357370Y-21550000D01*
X43480947Y-21204542D01*
X43619370Y-21204542D01*
X43883237Y-21204542D01*
X43834865Y-21062332D01*
X43823291Y-21026342D01*
X43810833Y-20985740D01*
X43798742Y-20944827D01*
X43789673Y-20913711D01*
X43777254Y-20870348D01*
X43765499Y-20828632D01*
X43753068Y-20783932D01*
X43743675Y-20817362D01*
X43731718Y-20859370D01*
X43719042Y-20903124D01*
X43707187Y-20943166D01*
X43695973Y-20980039D01*
X43682891Y-21021537D01*
X43669403Y-21062332D01*
X43619370Y-21204542D01*
X43480947Y-21204542D01*
X43671064Y-20673070D01*
X43833827Y-20673070D01*
X44141707Y-21550000D01*
G37*
G36*
X43113848Y-20673070D02*
G01*
X43113848Y-21550000D01*
X43241734Y-21550000D01*
X43241734Y-20673070D01*
X43113848Y-20673070D01*
G37*
G36*
X42646734Y-20898946D02*
G01*
X42646734Y-21008147D01*
X42776280Y-21008147D01*
X42776280Y-21378517D01*
X42769217Y-21420803D01*
X42759879Y-21435816D01*
X42721004Y-21453211D01*
X42705486Y-21454085D01*
X42678913Y-21451802D01*
X42651301Y-21447027D01*
X42628672Y-21550207D01*
X42669739Y-21559768D01*
X42672684Y-21560172D01*
X42715394Y-21563274D01*
X42718150Y-21563286D01*
X42759892Y-21560432D01*
X42800927Y-21550396D01*
X42839164Y-21530771D01*
X42855378Y-21517613D01*
X42883155Y-21481846D01*
X42898401Y-21441752D01*
X42903975Y-21399496D01*
X42904166Y-21389312D01*
X42904166Y-21008147D01*
X42998834Y-21008147D01*
X42998834Y-20898946D01*
X42904166Y-20898946D01*
X42904166Y-20739504D01*
X42776280Y-20739504D01*
X42776280Y-20898946D01*
X42646734Y-20898946D01*
G37*
G36*
X42192906Y-21550000D02*
G01*
X42192906Y-20673070D01*
X41647939Y-20673070D01*
X41647939Y-20782271D01*
X42060453Y-20782271D01*
X42060453Y-21055481D01*
X41677004Y-21055481D01*
X41677004Y-21164682D01*
X42060453Y-21164682D01*
X42060453Y-21440799D01*
X41644410Y-21440799D01*
X41644410Y-21550000D01*
X42192906Y-21550000D01*
G37*
G36*
X41357498Y-21163644D02*
G01*
X41357498Y-21550000D01*
X41485383Y-21550000D01*
X41485383Y-20898946D01*
X41363311Y-20898946D01*
X41362688Y-21028492D01*
X41341846Y-20988264D01*
X41314237Y-20952397D01*
X41281721Y-20925312D01*
X41244668Y-20906518D01*
X41203443Y-20895526D01*
X41162348Y-20892302D01*
X41120699Y-20895293D01*
X41077650Y-20906033D01*
X41039453Y-20924585D01*
X41006110Y-20950947D01*
X41002283Y-20954792D01*
X40975671Y-20989644D01*
X40956662Y-21031710D01*
X40946266Y-21074436D01*
X40941692Y-21122685D01*
X40941454Y-21137486D01*
X40941454Y-21550000D01*
X41069340Y-21550000D01*
X41069340Y-21151395D01*
X41073658Y-21106522D01*
X41088216Y-21065908D01*
X41105879Y-21041156D01*
X41140089Y-21015483D01*
X41183345Y-21002897D01*
X41206360Y-21001503D01*
X41248552Y-21006508D01*
X41288593Y-21023382D01*
X41314523Y-21043855D01*
X41340711Y-21080553D01*
X41354098Y-21122861D01*
X41357498Y-21163644D01*
G37*
G36*
X40496346Y-21563286D02*
G01*
X40540826Y-21560678D01*
X40582295Y-21552854D01*
X40625350Y-21537817D01*
X40656203Y-21521557D01*
X40692009Y-21495341D01*
X40723052Y-21463869D01*
X40749332Y-21427142D01*
X40761875Y-21404467D01*
X40778406Y-21365217D01*
X40790213Y-21322826D01*
X40797298Y-21277295D01*
X40799622Y-21234880D01*
X40799659Y-21228625D01*
X40797851Y-21185604D01*
X40791357Y-21139405D01*
X40780140Y-21096372D01*
X40764200Y-21056505D01*
X40761875Y-21051744D01*
X40738240Y-21011813D01*
X40709843Y-20977269D01*
X40676683Y-20948110D01*
X40656203Y-20934239D01*
X40616112Y-20913967D01*
X40572210Y-20900329D01*
X40529988Y-20893777D01*
X40496346Y-20892302D01*
X40453434Y-20894746D01*
X40407628Y-20903524D01*
X40365273Y-20918686D01*
X40326370Y-20940231D01*
X40321749Y-20943374D01*
X40288104Y-20971361D01*
X40260661Y-21004254D01*
X40239420Y-21042051D01*
X40224382Y-21084754D01*
X40345832Y-21113611D01*
X40362447Y-21073346D01*
X40388680Y-21040472D01*
X40397941Y-21032437D01*
X40435703Y-21011291D01*
X40477883Y-21002259D01*
X40495931Y-21001503D01*
X40540210Y-21006574D01*
X40580537Y-21023377D01*
X40593091Y-21032229D01*
X40623104Y-21062986D01*
X40644213Y-21098804D01*
X40650598Y-21114441D01*
X40662110Y-21154730D01*
X40668309Y-21198055D01*
X40669490Y-21228625D01*
X40666833Y-21273536D01*
X40658863Y-21315469D01*
X40650598Y-21341770D01*
X40631993Y-21379908D01*
X40604677Y-21413469D01*
X40593091Y-21423567D01*
X40555488Y-21444429D01*
X40513740Y-21453340D01*
X40495931Y-21454085D01*
X40453443Y-21449589D01*
X40414135Y-21434572D01*
X40395865Y-21422114D01*
X40366437Y-21390023D01*
X40347181Y-21350065D01*
X40343548Y-21337203D01*
X40222721Y-21366268D01*
X40237786Y-21409878D01*
X40259104Y-21448532D01*
X40286677Y-21482229D01*
X40320504Y-21510969D01*
X40359131Y-21533858D01*
X40401314Y-21550207D01*
X40447053Y-21560017D01*
X40489990Y-21563235D01*
X40496346Y-21563286D01*
G37*
G36*
X39755607Y-21550000D02*
G01*
X39623154Y-21550000D01*
X39623154Y-21244403D01*
X39446481Y-21244403D01*
X39404129Y-21242615D01*
X39359669Y-21236192D01*
X39319413Y-21225098D01*
X39279150Y-21207034D01*
X39270924Y-21202231D01*
X39233713Y-21175056D01*
X39203031Y-21142609D01*
X39178876Y-21104891D01*
X39171042Y-21088439D01*
X39156027Y-21045036D01*
X39148095Y-21003200D01*
X39145451Y-20958736D01*
X39145467Y-20958114D01*
X39279773Y-20958114D01*
X39279814Y-20962876D01*
X39284753Y-21007665D01*
X39297923Y-21047305D01*
X39321917Y-21084961D01*
X39336384Y-21099435D01*
X39373105Y-21121023D01*
X39415028Y-21132062D01*
X39459352Y-21135202D01*
X39623154Y-21135202D01*
X39623154Y-20782271D01*
X39460390Y-20782271D01*
X39442805Y-20782707D01*
X39400567Y-20788134D01*
X39357294Y-20803640D01*
X39321917Y-20831889D01*
X39319324Y-20835016D01*
X39296235Y-20872898D01*
X39283888Y-20912870D01*
X39279773Y-20958114D01*
X39145467Y-20958114D01*
X39145970Y-20938654D01*
X39150933Y-20895389D01*
X39161152Y-20854785D01*
X39178668Y-20812789D01*
X39185155Y-20800885D01*
X39211073Y-20764684D01*
X39243601Y-20733835D01*
X39278527Y-20710647D01*
X39318757Y-20692482D01*
X39358929Y-20681327D01*
X39403253Y-20674868D01*
X39445443Y-20673070D01*
X39755607Y-20673070D01*
X39755607Y-21550000D01*
G37*
G36*
X38632871Y-21563286D02*
G01*
X38681008Y-21560693D01*
X38726781Y-21552915D01*
X38770190Y-21539951D01*
X38811234Y-21521801D01*
X38833627Y-21509101D01*
X38870349Y-21483079D01*
X38903496Y-21452606D01*
X38933066Y-21417683D01*
X38959060Y-21378309D01*
X38972308Y-21353811D01*
X38989452Y-21314511D01*
X39003050Y-21272436D01*
X39013100Y-21227588D01*
X39019603Y-21179967D01*
X39022313Y-21138164D01*
X39022756Y-21112158D01*
X39021514Y-21069014D01*
X39016746Y-21019812D01*
X39008401Y-20973412D01*
X38996480Y-20929814D01*
X38980982Y-20889020D01*
X38971892Y-20869673D01*
X38951512Y-20833338D01*
X38924433Y-20795135D01*
X38893797Y-20761442D01*
X38859604Y-20732260D01*
X38833004Y-20714176D01*
X38793340Y-20692982D01*
X38751372Y-20676993D01*
X38707099Y-20666210D01*
X38660522Y-20660633D01*
X38632871Y-20659783D01*
X38588197Y-20661976D01*
X38545521Y-20668555D01*
X38504843Y-20679519D01*
X38466163Y-20694869D01*
X38425676Y-20716967D01*
X38389228Y-20744025D01*
X38356820Y-20776043D01*
X38340561Y-20795973D01*
X38315226Y-20835227D01*
X38297420Y-20873676D01*
X38284052Y-20915473D01*
X38275996Y-20954792D01*
X38409071Y-20954792D01*
X38421943Y-20910266D01*
X38442105Y-20871981D01*
X38469559Y-20839936D01*
X38487962Y-20824830D01*
X38524506Y-20802852D01*
X38564072Y-20788067D01*
X38606660Y-20780474D01*
X38631625Y-20779364D01*
X38676557Y-20783135D01*
X38718447Y-20794448D01*
X38757296Y-20813303D01*
X38764701Y-20817979D01*
X38799009Y-20845491D01*
X38828491Y-20880018D01*
X38850900Y-20917090D01*
X38857501Y-20930710D01*
X38872306Y-20969843D01*
X38882881Y-21013129D01*
X38888664Y-21054411D01*
X38891209Y-21098871D01*
X38891341Y-21112158D01*
X38889722Y-21157759D01*
X38884864Y-21200102D01*
X38875346Y-21244503D01*
X38861599Y-21284649D01*
X38857501Y-21294021D01*
X38836395Y-21332753D01*
X38808360Y-21369125D01*
X38775500Y-21398481D01*
X38764701Y-21405921D01*
X38726460Y-21425846D01*
X38685178Y-21438392D01*
X38640855Y-21443557D01*
X38631625Y-21443705D01*
X38587359Y-21440109D01*
X38546114Y-21429319D01*
X38507891Y-21411337D01*
X38487962Y-21398239D01*
X38456457Y-21369461D01*
X38432244Y-21334507D01*
X38415322Y-21293379D01*
X38409071Y-21267862D01*
X38275373Y-21267862D01*
X38284313Y-21310071D01*
X38297639Y-21349711D01*
X38317872Y-21391235D01*
X38337447Y-21421284D01*
X38366841Y-21456303D01*
X38400602Y-21486855D01*
X38438733Y-21512940D01*
X38461803Y-21525502D01*
X38500911Y-21542033D01*
X38542459Y-21553840D01*
X38586445Y-21560925D01*
X38632871Y-21563286D01*
G37*
G36*
X38119668Y-21550000D02*
G01*
X37786667Y-21550000D01*
X37750242Y-21548934D01*
X37705581Y-21544198D01*
X37660672Y-21534341D01*
X37621413Y-21519689D01*
X37584234Y-21498576D01*
X37550971Y-21470340D01*
X37525706Y-21436854D01*
X37509284Y-21402558D01*
X37498245Y-21361742D01*
X37494565Y-21317688D01*
X37494671Y-21315404D01*
X37625772Y-21315404D01*
X37626405Y-21328568D01*
X37638582Y-21370246D01*
X37666256Y-21405090D01*
X37677158Y-21413459D01*
X37715738Y-21430721D01*
X37756681Y-21438567D01*
X37800162Y-21440799D01*
X37987215Y-21440799D01*
X37987215Y-21167588D01*
X37794972Y-21167588D01*
X37749456Y-21171846D01*
X37706649Y-21186364D01*
X37671446Y-21211186D01*
X37651464Y-21234048D01*
X37632195Y-21272332D01*
X37625772Y-21315404D01*
X37494671Y-21315404D01*
X37495857Y-21289729D01*
X37504080Y-21246097D01*
X37521554Y-21204958D01*
X37528525Y-21193568D01*
X37556449Y-21159071D01*
X37589856Y-21132918D01*
X37592428Y-21131370D01*
X37631585Y-21113507D01*
X37674560Y-21105514D01*
X37674560Y-21096795D01*
X37641957Y-21085737D01*
X37602778Y-21063841D01*
X37571172Y-21036589D01*
X37565968Y-21030830D01*
X37543348Y-20993678D01*
X37531597Y-20951857D01*
X37528692Y-20914101D01*
X37658367Y-20914101D01*
X37661169Y-20945346D01*
X37675883Y-20985985D01*
X37703210Y-21019150D01*
X37729976Y-21038117D01*
X37770824Y-21053751D01*
X37813449Y-21058387D01*
X37987215Y-21058387D01*
X37987215Y-20782271D01*
X37809919Y-20782271D01*
X37774068Y-20784632D01*
X37732782Y-20795591D01*
X37695943Y-20820055D01*
X37685118Y-20832314D01*
X37664568Y-20871438D01*
X37658367Y-20914101D01*
X37528692Y-20914101D01*
X37528197Y-20907665D01*
X37531117Y-20867681D01*
X37541072Y-20826648D01*
X37558093Y-20788707D01*
X37579758Y-20757639D01*
X37610473Y-20728428D01*
X37648401Y-20704419D01*
X37672166Y-20693765D01*
X37711973Y-20681917D01*
X37756772Y-20675029D01*
X37800785Y-20673070D01*
X38119668Y-20673070D01*
X38119668Y-21550000D01*
G37*
%LPC*%
D11*
%TO.C,J2*%
X28950000Y-22250000D03*
X31450000Y-22250000D03*
X33950000Y-22250000D03*
D12*
X26600000Y-24050000D03*
X36300000Y-24050000D03*
%TD*%
D13*
%TO.C,REF\u002A\u002A*%
X41200000Y-23900000D03*
%TD*%
%TO.C,REF\u002A\u002A*%
X22150000Y-22500000D03*
%TD*%
%LPD*%
M02*
