%TF.GenerationSoftware,KiCad,Pcbnew,8.0.9*%
%TF.CreationDate,2025-07-15T23:29:25+09:00*%
%TF.ProjectId,KPUEncoderPCB,4b505545-6e63-46f6-9465-725043422e6b,rev?*%
%TF.SameCoordinates,Original*%
%TF.FileFunction,Drillmap*%
%TF.FilePolarity,Positive*%
%FSLAX45Y45*%
G04 Gerber Fmt 4.5, Leading zero omitted, Abs format (unit mm)*
G04 Created by KiCad (PCBNEW 8.0.9) date 2025-07-15 23:29:25*
%MOMM*%
%LPD*%
G01*
G04 APERTURE LIST*
%ADD10C,0.050000*%
%ADD11C,0.200000*%
%ADD12C,0.100000*%
%ADD13C,0.170000*%
G04 APERTURE END LIST*
D10*
X4700000Y-2000000D02*
X3608516Y-2000000D01*
X4700000Y-2000000D02*
G75*
G02*
X4750000Y-2050000I0J-50000D01*
G01*
X4750000Y-2820000D02*
X4750000Y-2050000D01*
X4750000Y-2820000D02*
G75*
G02*
X4700000Y-2870000I-50000J0D01*
G01*
X3660000Y-2870000D02*
X4700000Y-2870000D01*
X3660000Y-2870000D02*
G75*
G02*
X3430190Y-2774810I0J325001D01*
G01*
X3288959Y-2633579D02*
X3430190Y-2774810D01*
X3147538Y-2575000D02*
G75*
G02*
X3288959Y-2633579I0J-200000D01*
G01*
X2050000Y-2575000D02*
X3147538Y-2575000D01*
X2050000Y-2575000D02*
G75*
G02*
X2000000Y-2525000I0J50000D01*
G01*
X2000000Y-2050000D02*
X2000000Y-2525000D01*
X2000000Y-2050000D02*
G75*
G02*
X2050000Y-2000000I50000J0D01*
G01*
X2681484Y-2000000D02*
X2050000Y-2000000D01*
X2681484Y-2000000D02*
G75*
G02*
X2723242Y-2022500I0J-50000D01*
G01*
X2765000Y-2045000D02*
G75*
G02*
X2723242Y-2022500I0J50000D01*
G01*
X3525000Y-2045000D02*
X2765000Y-2045000D01*
X3566758Y-2022500D02*
G75*
G02*
X3525000Y-2045000I-41758J27500D01*
G01*
X3566758Y-2022500D02*
G75*
G02*
X3608516Y-2000000I41759J-27500D01*
G01*
D11*
D12*
X4505000Y-2240000D02*
X4585000Y-2320000D01*
X4585000Y-2240000D02*
X4505000Y-2320000D01*
X4505000Y-2440000D02*
X4585000Y-2520000D01*
X4585000Y-2440000D02*
X4505000Y-2520000D01*
X4505000Y-2640000D02*
X4585000Y-2720000D01*
X4585000Y-2640000D02*
X4505000Y-2720000D01*
X2945000Y-2225000D02*
G75*
G02*
X2845000Y-2225000I-50000J0D01*
G01*
X2845000Y-2225000D02*
G75*
G02*
X2945000Y-2225000I50000J0D01*
G01*
X3195000Y-2225000D02*
G75*
G02*
X3095000Y-2225000I-50000J0D01*
G01*
X3095000Y-2225000D02*
G75*
G02*
X3195000Y-2225000I50000J0D01*
G01*
X3445000Y-2225000D02*
G75*
G02*
X3345000Y-2225000I-50000J0D01*
G01*
X3345000Y-2225000D02*
G75*
G02*
X3445000Y-2225000I50000J0D01*
G01*
D13*
X2660000Y-2320000D02*
X2660000Y-2490000D01*
X2575000Y-2405000D02*
X2745000Y-2405000D01*
D12*
X2575000Y-2380000D02*
X2575000Y-2430000D01*
X2745000Y-2430000D02*
G75*
G02*
X2575000Y-2430000I-85000J0D01*
G01*
X2745000Y-2430000D02*
X2745000Y-2380000D01*
X2745000Y-2380000D02*
G75*
G03*
X2575000Y-2380000I-85000J0D01*
G01*
D13*
X3630000Y-2320000D02*
X3630000Y-2490000D01*
X3545000Y-2405000D02*
X3715000Y-2405000D01*
D12*
X3545000Y-2380000D02*
X3545000Y-2430000D01*
X3715000Y-2430000D02*
G75*
G02*
X3545000Y-2430000I-85000J0D01*
G01*
X3715000Y-2430000D02*
X3715000Y-2380000D01*
X3715000Y-2380000D02*
G75*
G03*
X3545000Y-2380000I-85000J0D01*
G01*
D11*
X2258277Y-3183984D02*
X2258277Y-2983984D01*
X2258277Y-2983984D02*
X2305896Y-2983984D01*
X2305896Y-2983984D02*
X2334467Y-2993508D01*
X2334467Y-2993508D02*
X2353515Y-3012555D01*
X2353515Y-3012555D02*
X2363039Y-3031603D01*
X2363039Y-3031603D02*
X2372563Y-3069698D01*
X2372563Y-3069698D02*
X2372563Y-3098269D01*
X2372563Y-3098269D02*
X2363039Y-3136365D01*
X2363039Y-3136365D02*
X2353515Y-3155412D01*
X2353515Y-3155412D02*
X2334467Y-3174460D01*
X2334467Y-3174460D02*
X2305896Y-3183984D01*
X2305896Y-3183984D02*
X2258277Y-3183984D01*
X2458277Y-3183984D02*
X2458277Y-3050650D01*
X2458277Y-3088746D02*
X2467801Y-3069698D01*
X2467801Y-3069698D02*
X2477324Y-3060174D01*
X2477324Y-3060174D02*
X2496372Y-3050650D01*
X2496372Y-3050650D02*
X2515420Y-3050650D01*
X2582086Y-3183984D02*
X2582086Y-3050650D01*
X2582086Y-2983984D02*
X2572563Y-2993508D01*
X2572563Y-2993508D02*
X2582086Y-3003031D01*
X2582086Y-3003031D02*
X2591610Y-2993508D01*
X2591610Y-2993508D02*
X2582086Y-2983984D01*
X2582086Y-2983984D02*
X2582086Y-3003031D01*
X2705896Y-3183984D02*
X2686848Y-3174460D01*
X2686848Y-3174460D02*
X2677324Y-3155412D01*
X2677324Y-3155412D02*
X2677324Y-2983984D01*
X2810658Y-3183984D02*
X2791610Y-3174460D01*
X2791610Y-3174460D02*
X2782086Y-3155412D01*
X2782086Y-3155412D02*
X2782086Y-2983984D01*
X3039229Y-3183984D02*
X3039229Y-2983984D01*
X3039229Y-2983984D02*
X3105896Y-3126841D01*
X3105896Y-3126841D02*
X3172562Y-2983984D01*
X3172562Y-2983984D02*
X3172562Y-3183984D01*
X3353515Y-3183984D02*
X3353515Y-3079222D01*
X3353515Y-3079222D02*
X3343991Y-3060174D01*
X3343991Y-3060174D02*
X3324943Y-3050650D01*
X3324943Y-3050650D02*
X3286848Y-3050650D01*
X3286848Y-3050650D02*
X3267801Y-3060174D01*
X3353515Y-3174460D02*
X3334467Y-3183984D01*
X3334467Y-3183984D02*
X3286848Y-3183984D01*
X3286848Y-3183984D02*
X3267801Y-3174460D01*
X3267801Y-3174460D02*
X3258277Y-3155412D01*
X3258277Y-3155412D02*
X3258277Y-3136365D01*
X3258277Y-3136365D02*
X3267801Y-3117317D01*
X3267801Y-3117317D02*
X3286848Y-3107793D01*
X3286848Y-3107793D02*
X3334467Y-3107793D01*
X3334467Y-3107793D02*
X3353515Y-3098269D01*
X3448753Y-3050650D02*
X3448753Y-3250650D01*
X3448753Y-3060174D02*
X3467801Y-3050650D01*
X3467801Y-3050650D02*
X3505896Y-3050650D01*
X3505896Y-3050650D02*
X3524943Y-3060174D01*
X3524943Y-3060174D02*
X3534467Y-3069698D01*
X3534467Y-3069698D02*
X3543991Y-3088746D01*
X3543991Y-3088746D02*
X3543991Y-3145888D01*
X3543991Y-3145888D02*
X3534467Y-3164936D01*
X3534467Y-3164936D02*
X3524943Y-3174460D01*
X3524943Y-3174460D02*
X3505896Y-3183984D01*
X3505896Y-3183984D02*
X3467801Y-3183984D01*
X3467801Y-3183984D02*
X3448753Y-3174460D01*
X3629705Y-3164936D02*
X3639229Y-3174460D01*
X3639229Y-3174460D02*
X3629705Y-3183984D01*
X3629705Y-3183984D02*
X3620182Y-3174460D01*
X3620182Y-3174460D02*
X3629705Y-3164936D01*
X3629705Y-3164936D02*
X3629705Y-3183984D01*
X3629705Y-3060174D02*
X3639229Y-3069698D01*
X3639229Y-3069698D02*
X3629705Y-3079222D01*
X3629705Y-3079222D02*
X3620182Y-3069698D01*
X3620182Y-3069698D02*
X3629705Y-3060174D01*
X3629705Y-3060174D02*
X3629705Y-3079222D01*
D12*
X1917500Y-3472500D02*
X1997500Y-3552500D01*
X1997500Y-3472500D02*
X1917500Y-3552500D01*
D11*
X2296372Y-3403984D02*
X2315420Y-3403984D01*
X2315420Y-3403984D02*
X2334467Y-3413508D01*
X2334467Y-3413508D02*
X2343991Y-3423031D01*
X2343991Y-3423031D02*
X2353515Y-3442079D01*
X2353515Y-3442079D02*
X2363039Y-3480174D01*
X2363039Y-3480174D02*
X2363039Y-3527793D01*
X2363039Y-3527793D02*
X2353515Y-3565888D01*
X2353515Y-3565888D02*
X2343991Y-3584936D01*
X2343991Y-3584936D02*
X2334467Y-3594460D01*
X2334467Y-3594460D02*
X2315420Y-3603984D01*
X2315420Y-3603984D02*
X2296372Y-3603984D01*
X2296372Y-3603984D02*
X2277324Y-3594460D01*
X2277324Y-3594460D02*
X2267801Y-3584936D01*
X2267801Y-3584936D02*
X2258277Y-3565888D01*
X2258277Y-3565888D02*
X2248753Y-3527793D01*
X2248753Y-3527793D02*
X2248753Y-3480174D01*
X2248753Y-3480174D02*
X2258277Y-3442079D01*
X2258277Y-3442079D02*
X2267801Y-3423031D01*
X2267801Y-3423031D02*
X2277324Y-3413508D01*
X2277324Y-3413508D02*
X2296372Y-3403984D01*
X2448753Y-3584936D02*
X2458277Y-3594460D01*
X2458277Y-3594460D02*
X2448753Y-3603984D01*
X2448753Y-3603984D02*
X2439229Y-3594460D01*
X2439229Y-3594460D02*
X2448753Y-3584936D01*
X2448753Y-3584936D02*
X2448753Y-3603984D01*
X2572563Y-3489698D02*
X2553515Y-3480174D01*
X2553515Y-3480174D02*
X2543991Y-3470650D01*
X2543991Y-3470650D02*
X2534467Y-3451603D01*
X2534467Y-3451603D02*
X2534467Y-3442079D01*
X2534467Y-3442079D02*
X2543991Y-3423031D01*
X2543991Y-3423031D02*
X2553515Y-3413508D01*
X2553515Y-3413508D02*
X2572563Y-3403984D01*
X2572563Y-3403984D02*
X2610658Y-3403984D01*
X2610658Y-3403984D02*
X2629705Y-3413508D01*
X2629705Y-3413508D02*
X2639229Y-3423031D01*
X2639229Y-3423031D02*
X2648753Y-3442079D01*
X2648753Y-3442079D02*
X2648753Y-3451603D01*
X2648753Y-3451603D02*
X2639229Y-3470650D01*
X2639229Y-3470650D02*
X2629705Y-3480174D01*
X2629705Y-3480174D02*
X2610658Y-3489698D01*
X2610658Y-3489698D02*
X2572563Y-3489698D01*
X2572563Y-3489698D02*
X2553515Y-3499222D01*
X2553515Y-3499222D02*
X2543991Y-3508746D01*
X2543991Y-3508746D02*
X2534467Y-3527793D01*
X2534467Y-3527793D02*
X2534467Y-3565888D01*
X2534467Y-3565888D02*
X2543991Y-3584936D01*
X2543991Y-3584936D02*
X2553515Y-3594460D01*
X2553515Y-3594460D02*
X2572563Y-3603984D01*
X2572563Y-3603984D02*
X2610658Y-3603984D01*
X2610658Y-3603984D02*
X2629705Y-3594460D01*
X2629705Y-3594460D02*
X2639229Y-3584936D01*
X2639229Y-3584936D02*
X2648753Y-3565888D01*
X2648753Y-3565888D02*
X2648753Y-3527793D01*
X2648753Y-3527793D02*
X2639229Y-3508746D01*
X2639229Y-3508746D02*
X2629705Y-3499222D01*
X2629705Y-3499222D02*
X2610658Y-3489698D01*
X2772563Y-3403984D02*
X2791610Y-3403984D01*
X2791610Y-3403984D02*
X2810658Y-3413508D01*
X2810658Y-3413508D02*
X2820182Y-3423031D01*
X2820182Y-3423031D02*
X2829705Y-3442079D01*
X2829705Y-3442079D02*
X2839229Y-3480174D01*
X2839229Y-3480174D02*
X2839229Y-3527793D01*
X2839229Y-3527793D02*
X2829705Y-3565888D01*
X2829705Y-3565888D02*
X2820182Y-3584936D01*
X2820182Y-3584936D02*
X2810658Y-3594460D01*
X2810658Y-3594460D02*
X2791610Y-3603984D01*
X2791610Y-3603984D02*
X2772563Y-3603984D01*
X2772563Y-3603984D02*
X2753515Y-3594460D01*
X2753515Y-3594460D02*
X2743991Y-3584936D01*
X2743991Y-3584936D02*
X2734467Y-3565888D01*
X2734467Y-3565888D02*
X2724944Y-3527793D01*
X2724944Y-3527793D02*
X2724944Y-3480174D01*
X2724944Y-3480174D02*
X2734467Y-3442079D01*
X2734467Y-3442079D02*
X2743991Y-3423031D01*
X2743991Y-3423031D02*
X2753515Y-3413508D01*
X2753515Y-3413508D02*
X2772563Y-3403984D01*
X2963039Y-3403984D02*
X2982086Y-3403984D01*
X2982086Y-3403984D02*
X3001134Y-3413508D01*
X3001134Y-3413508D02*
X3010658Y-3423031D01*
X3010658Y-3423031D02*
X3020182Y-3442079D01*
X3020182Y-3442079D02*
X3029705Y-3480174D01*
X3029705Y-3480174D02*
X3029705Y-3527793D01*
X3029705Y-3527793D02*
X3020182Y-3565888D01*
X3020182Y-3565888D02*
X3010658Y-3584936D01*
X3010658Y-3584936D02*
X3001134Y-3594460D01*
X3001134Y-3594460D02*
X2982086Y-3603984D01*
X2982086Y-3603984D02*
X2963039Y-3603984D01*
X2963039Y-3603984D02*
X2943991Y-3594460D01*
X2943991Y-3594460D02*
X2934467Y-3584936D01*
X2934467Y-3584936D02*
X2924943Y-3565888D01*
X2924943Y-3565888D02*
X2915420Y-3527793D01*
X2915420Y-3527793D02*
X2915420Y-3480174D01*
X2915420Y-3480174D02*
X2924943Y-3442079D01*
X2924943Y-3442079D02*
X2934467Y-3423031D01*
X2934467Y-3423031D02*
X2943991Y-3413508D01*
X2943991Y-3413508D02*
X2963039Y-3403984D01*
X3115420Y-3603984D02*
X3115420Y-3470650D01*
X3115420Y-3489698D02*
X3124943Y-3480174D01*
X3124943Y-3480174D02*
X3143991Y-3470650D01*
X3143991Y-3470650D02*
X3172563Y-3470650D01*
X3172563Y-3470650D02*
X3191610Y-3480174D01*
X3191610Y-3480174D02*
X3201134Y-3499222D01*
X3201134Y-3499222D02*
X3201134Y-3603984D01*
X3201134Y-3499222D02*
X3210658Y-3480174D01*
X3210658Y-3480174D02*
X3229705Y-3470650D01*
X3229705Y-3470650D02*
X3258277Y-3470650D01*
X3258277Y-3470650D02*
X3277324Y-3480174D01*
X3277324Y-3480174D02*
X3286848Y-3499222D01*
X3286848Y-3499222D02*
X3286848Y-3603984D01*
X3382086Y-3603984D02*
X3382086Y-3470650D01*
X3382086Y-3489698D02*
X3391610Y-3480174D01*
X3391610Y-3480174D02*
X3410658Y-3470650D01*
X3410658Y-3470650D02*
X3439229Y-3470650D01*
X3439229Y-3470650D02*
X3458277Y-3480174D01*
X3458277Y-3480174D02*
X3467801Y-3499222D01*
X3467801Y-3499222D02*
X3467801Y-3603984D01*
X3467801Y-3499222D02*
X3477324Y-3480174D01*
X3477324Y-3480174D02*
X3496372Y-3470650D01*
X3496372Y-3470650D02*
X3524943Y-3470650D01*
X3524943Y-3470650D02*
X3543991Y-3480174D01*
X3543991Y-3480174D02*
X3553515Y-3499222D01*
X3553515Y-3499222D02*
X3553515Y-3603984D01*
X3943991Y-3394460D02*
X3772563Y-3651603D01*
X4201134Y-3403984D02*
X4220182Y-3403984D01*
X4220182Y-3403984D02*
X4239229Y-3413508D01*
X4239229Y-3413508D02*
X4248753Y-3423031D01*
X4248753Y-3423031D02*
X4258277Y-3442079D01*
X4258277Y-3442079D02*
X4267801Y-3480174D01*
X4267801Y-3480174D02*
X4267801Y-3527793D01*
X4267801Y-3527793D02*
X4258277Y-3565888D01*
X4258277Y-3565888D02*
X4248753Y-3584936D01*
X4248753Y-3584936D02*
X4239229Y-3594460D01*
X4239229Y-3594460D02*
X4220182Y-3603984D01*
X4220182Y-3603984D02*
X4201134Y-3603984D01*
X4201134Y-3603984D02*
X4182086Y-3594460D01*
X4182086Y-3594460D02*
X4172563Y-3584936D01*
X4172563Y-3584936D02*
X4163039Y-3565888D01*
X4163039Y-3565888D02*
X4153515Y-3527793D01*
X4153515Y-3527793D02*
X4153515Y-3480174D01*
X4153515Y-3480174D02*
X4163039Y-3442079D01*
X4163039Y-3442079D02*
X4172563Y-3423031D01*
X4172563Y-3423031D02*
X4182086Y-3413508D01*
X4182086Y-3413508D02*
X4201134Y-3403984D01*
X4353515Y-3584936D02*
X4363039Y-3594460D01*
X4363039Y-3594460D02*
X4353515Y-3603984D01*
X4353515Y-3603984D02*
X4343991Y-3594460D01*
X4343991Y-3594460D02*
X4353515Y-3584936D01*
X4353515Y-3584936D02*
X4353515Y-3603984D01*
X4486848Y-3403984D02*
X4505896Y-3403984D01*
X4505896Y-3403984D02*
X4524944Y-3413508D01*
X4524944Y-3413508D02*
X4534468Y-3423031D01*
X4534468Y-3423031D02*
X4543991Y-3442079D01*
X4543991Y-3442079D02*
X4553515Y-3480174D01*
X4553515Y-3480174D02*
X4553515Y-3527793D01*
X4553515Y-3527793D02*
X4543991Y-3565888D01*
X4543991Y-3565888D02*
X4534468Y-3584936D01*
X4534468Y-3584936D02*
X4524944Y-3594460D01*
X4524944Y-3594460D02*
X4505896Y-3603984D01*
X4505896Y-3603984D02*
X4486848Y-3603984D01*
X4486848Y-3603984D02*
X4467801Y-3594460D01*
X4467801Y-3594460D02*
X4458277Y-3584936D01*
X4458277Y-3584936D02*
X4448753Y-3565888D01*
X4448753Y-3565888D02*
X4439229Y-3527793D01*
X4439229Y-3527793D02*
X4439229Y-3480174D01*
X4439229Y-3480174D02*
X4448753Y-3442079D01*
X4448753Y-3442079D02*
X4458277Y-3423031D01*
X4458277Y-3423031D02*
X4467801Y-3413508D01*
X4467801Y-3413508D02*
X4486848Y-3403984D01*
X4620182Y-3403984D02*
X4743991Y-3403984D01*
X4743991Y-3403984D02*
X4677325Y-3480174D01*
X4677325Y-3480174D02*
X4705896Y-3480174D01*
X4705896Y-3480174D02*
X4724944Y-3489698D01*
X4724944Y-3489698D02*
X4734468Y-3499222D01*
X4734468Y-3499222D02*
X4743991Y-3518269D01*
X4743991Y-3518269D02*
X4743991Y-3565888D01*
X4743991Y-3565888D02*
X4734468Y-3584936D01*
X4734468Y-3584936D02*
X4724944Y-3594460D01*
X4724944Y-3594460D02*
X4705896Y-3603984D01*
X4705896Y-3603984D02*
X4648753Y-3603984D01*
X4648753Y-3603984D02*
X4629706Y-3594460D01*
X4629706Y-3594460D02*
X4620182Y-3584936D01*
X4934468Y-3603984D02*
X4820182Y-3603984D01*
X4877325Y-3603984D02*
X4877325Y-3403984D01*
X4877325Y-3403984D02*
X4858277Y-3432555D01*
X4858277Y-3432555D02*
X4839229Y-3451603D01*
X4839229Y-3451603D02*
X4820182Y-3461127D01*
X5115420Y-3403984D02*
X5020182Y-3403984D01*
X5020182Y-3403984D02*
X5010658Y-3499222D01*
X5010658Y-3499222D02*
X5020182Y-3489698D01*
X5020182Y-3489698D02*
X5039229Y-3480174D01*
X5039229Y-3480174D02*
X5086849Y-3480174D01*
X5086849Y-3480174D02*
X5105896Y-3489698D01*
X5105896Y-3489698D02*
X5115420Y-3499222D01*
X5115420Y-3499222D02*
X5124944Y-3518269D01*
X5124944Y-3518269D02*
X5124944Y-3565888D01*
X5124944Y-3565888D02*
X5115420Y-3584936D01*
X5115420Y-3584936D02*
X5105896Y-3594460D01*
X5105896Y-3594460D02*
X5086849Y-3603984D01*
X5086849Y-3603984D02*
X5039229Y-3603984D01*
X5039229Y-3603984D02*
X5020182Y-3594460D01*
X5020182Y-3594460D02*
X5010658Y-3584936D01*
X5201134Y-3403984D02*
X5201134Y-3442079D01*
X5277325Y-3403984D02*
X5277325Y-3442079D01*
X5572563Y-3680174D02*
X5563039Y-3670650D01*
X5563039Y-3670650D02*
X5543991Y-3642079D01*
X5543991Y-3642079D02*
X5534468Y-3623031D01*
X5534468Y-3623031D02*
X5524944Y-3594460D01*
X5524944Y-3594460D02*
X5515420Y-3546841D01*
X5515420Y-3546841D02*
X5515420Y-3508746D01*
X5515420Y-3508746D02*
X5524944Y-3461127D01*
X5524944Y-3461127D02*
X5534468Y-3432555D01*
X5534468Y-3432555D02*
X5543991Y-3413508D01*
X5543991Y-3413508D02*
X5563039Y-3384936D01*
X5563039Y-3384936D02*
X5572563Y-3375412D01*
X5629706Y-3403984D02*
X5753515Y-3403984D01*
X5753515Y-3403984D02*
X5686848Y-3480174D01*
X5686848Y-3480174D02*
X5715420Y-3480174D01*
X5715420Y-3480174D02*
X5734468Y-3489698D01*
X5734468Y-3489698D02*
X5743991Y-3499222D01*
X5743991Y-3499222D02*
X5753515Y-3518269D01*
X5753515Y-3518269D02*
X5753515Y-3565888D01*
X5753515Y-3565888D02*
X5743991Y-3584936D01*
X5743991Y-3584936D02*
X5734468Y-3594460D01*
X5734468Y-3594460D02*
X5715420Y-3603984D01*
X5715420Y-3603984D02*
X5658277Y-3603984D01*
X5658277Y-3603984D02*
X5639229Y-3594460D01*
X5639229Y-3594460D02*
X5629706Y-3584936D01*
X5991610Y-3603984D02*
X5991610Y-3403984D01*
X6077325Y-3603984D02*
X6077325Y-3499222D01*
X6077325Y-3499222D02*
X6067801Y-3480174D01*
X6067801Y-3480174D02*
X6048753Y-3470650D01*
X6048753Y-3470650D02*
X6020182Y-3470650D01*
X6020182Y-3470650D02*
X6001134Y-3480174D01*
X6001134Y-3480174D02*
X5991610Y-3489698D01*
X6201134Y-3603984D02*
X6182087Y-3594460D01*
X6182087Y-3594460D02*
X6172563Y-3584936D01*
X6172563Y-3584936D02*
X6163039Y-3565888D01*
X6163039Y-3565888D02*
X6163039Y-3508746D01*
X6163039Y-3508746D02*
X6172563Y-3489698D01*
X6172563Y-3489698D02*
X6182087Y-3480174D01*
X6182087Y-3480174D02*
X6201134Y-3470650D01*
X6201134Y-3470650D02*
X6229706Y-3470650D01*
X6229706Y-3470650D02*
X6248753Y-3480174D01*
X6248753Y-3480174D02*
X6258277Y-3489698D01*
X6258277Y-3489698D02*
X6267801Y-3508746D01*
X6267801Y-3508746D02*
X6267801Y-3565888D01*
X6267801Y-3565888D02*
X6258277Y-3584936D01*
X6258277Y-3584936D02*
X6248753Y-3594460D01*
X6248753Y-3594460D02*
X6229706Y-3603984D01*
X6229706Y-3603984D02*
X6201134Y-3603984D01*
X6382087Y-3603984D02*
X6363039Y-3594460D01*
X6363039Y-3594460D02*
X6353515Y-3575412D01*
X6353515Y-3575412D02*
X6353515Y-3403984D01*
X6534468Y-3594460D02*
X6515420Y-3603984D01*
X6515420Y-3603984D02*
X6477325Y-3603984D01*
X6477325Y-3603984D02*
X6458277Y-3594460D01*
X6458277Y-3594460D02*
X6448753Y-3575412D01*
X6448753Y-3575412D02*
X6448753Y-3499222D01*
X6448753Y-3499222D02*
X6458277Y-3480174D01*
X6458277Y-3480174D02*
X6477325Y-3470650D01*
X6477325Y-3470650D02*
X6515420Y-3470650D01*
X6515420Y-3470650D02*
X6534468Y-3480174D01*
X6534468Y-3480174D02*
X6543991Y-3499222D01*
X6543991Y-3499222D02*
X6543991Y-3518269D01*
X6543991Y-3518269D02*
X6448753Y-3537317D01*
X6620182Y-3594460D02*
X6639230Y-3603984D01*
X6639230Y-3603984D02*
X6677325Y-3603984D01*
X6677325Y-3603984D02*
X6696372Y-3594460D01*
X6696372Y-3594460D02*
X6705896Y-3575412D01*
X6705896Y-3575412D02*
X6705896Y-3565888D01*
X6705896Y-3565888D02*
X6696372Y-3546841D01*
X6696372Y-3546841D02*
X6677325Y-3537317D01*
X6677325Y-3537317D02*
X6648753Y-3537317D01*
X6648753Y-3537317D02*
X6629706Y-3527793D01*
X6629706Y-3527793D02*
X6620182Y-3508746D01*
X6620182Y-3508746D02*
X6620182Y-3499222D01*
X6620182Y-3499222D02*
X6629706Y-3480174D01*
X6629706Y-3480174D02*
X6648753Y-3470650D01*
X6648753Y-3470650D02*
X6677325Y-3470650D01*
X6677325Y-3470650D02*
X6696372Y-3480174D01*
X6772563Y-3680174D02*
X6782087Y-3670650D01*
X6782087Y-3670650D02*
X6801134Y-3642079D01*
X6801134Y-3642079D02*
X6810658Y-3623031D01*
X6810658Y-3623031D02*
X6820182Y-3594460D01*
X6820182Y-3594460D02*
X6829706Y-3546841D01*
X6829706Y-3546841D02*
X6829706Y-3508746D01*
X6829706Y-3508746D02*
X6820182Y-3461127D01*
X6820182Y-3461127D02*
X6810658Y-3432555D01*
X6810658Y-3432555D02*
X6801134Y-3413508D01*
X6801134Y-3413508D02*
X6782087Y-3384936D01*
X6782087Y-3384936D02*
X6772563Y-3375412D01*
D12*
X1997500Y-3776500D02*
G75*
G02*
X1897500Y-3776500I-50000J0D01*
G01*
X1897500Y-3776500D02*
G75*
G02*
X1997500Y-3776500I50000J0D01*
G01*
D11*
X2363039Y-3867984D02*
X2248753Y-3867984D01*
X2305896Y-3867984D02*
X2305896Y-3667984D01*
X2305896Y-3667984D02*
X2286848Y-3696555D01*
X2286848Y-3696555D02*
X2267801Y-3715603D01*
X2267801Y-3715603D02*
X2248753Y-3725127D01*
X2448753Y-3848936D02*
X2458277Y-3858460D01*
X2458277Y-3858460D02*
X2448753Y-3867984D01*
X2448753Y-3867984D02*
X2439229Y-3858460D01*
X2439229Y-3858460D02*
X2448753Y-3848936D01*
X2448753Y-3848936D02*
X2448753Y-3867984D01*
X2582086Y-3667984D02*
X2601134Y-3667984D01*
X2601134Y-3667984D02*
X2620182Y-3677508D01*
X2620182Y-3677508D02*
X2629705Y-3687031D01*
X2629705Y-3687031D02*
X2639229Y-3706079D01*
X2639229Y-3706079D02*
X2648753Y-3744174D01*
X2648753Y-3744174D02*
X2648753Y-3791793D01*
X2648753Y-3791793D02*
X2639229Y-3829888D01*
X2639229Y-3829888D02*
X2629705Y-3848936D01*
X2629705Y-3848936D02*
X2620182Y-3858460D01*
X2620182Y-3858460D02*
X2601134Y-3867984D01*
X2601134Y-3867984D02*
X2582086Y-3867984D01*
X2582086Y-3867984D02*
X2563039Y-3858460D01*
X2563039Y-3858460D02*
X2553515Y-3848936D01*
X2553515Y-3848936D02*
X2543991Y-3829888D01*
X2543991Y-3829888D02*
X2534467Y-3791793D01*
X2534467Y-3791793D02*
X2534467Y-3744174D01*
X2534467Y-3744174D02*
X2543991Y-3706079D01*
X2543991Y-3706079D02*
X2553515Y-3687031D01*
X2553515Y-3687031D02*
X2563039Y-3677508D01*
X2563039Y-3677508D02*
X2582086Y-3667984D01*
X2772563Y-3667984D02*
X2791610Y-3667984D01*
X2791610Y-3667984D02*
X2810658Y-3677508D01*
X2810658Y-3677508D02*
X2820182Y-3687031D01*
X2820182Y-3687031D02*
X2829705Y-3706079D01*
X2829705Y-3706079D02*
X2839229Y-3744174D01*
X2839229Y-3744174D02*
X2839229Y-3791793D01*
X2839229Y-3791793D02*
X2829705Y-3829888D01*
X2829705Y-3829888D02*
X2820182Y-3848936D01*
X2820182Y-3848936D02*
X2810658Y-3858460D01*
X2810658Y-3858460D02*
X2791610Y-3867984D01*
X2791610Y-3867984D02*
X2772563Y-3867984D01*
X2772563Y-3867984D02*
X2753515Y-3858460D01*
X2753515Y-3858460D02*
X2743991Y-3848936D01*
X2743991Y-3848936D02*
X2734467Y-3829888D01*
X2734467Y-3829888D02*
X2724944Y-3791793D01*
X2724944Y-3791793D02*
X2724944Y-3744174D01*
X2724944Y-3744174D02*
X2734467Y-3706079D01*
X2734467Y-3706079D02*
X2743991Y-3687031D01*
X2743991Y-3687031D02*
X2753515Y-3677508D01*
X2753515Y-3677508D02*
X2772563Y-3667984D01*
X2963039Y-3667984D02*
X2982086Y-3667984D01*
X2982086Y-3667984D02*
X3001134Y-3677508D01*
X3001134Y-3677508D02*
X3010658Y-3687031D01*
X3010658Y-3687031D02*
X3020182Y-3706079D01*
X3020182Y-3706079D02*
X3029705Y-3744174D01*
X3029705Y-3744174D02*
X3029705Y-3791793D01*
X3029705Y-3791793D02*
X3020182Y-3829888D01*
X3020182Y-3829888D02*
X3010658Y-3848936D01*
X3010658Y-3848936D02*
X3001134Y-3858460D01*
X3001134Y-3858460D02*
X2982086Y-3867984D01*
X2982086Y-3867984D02*
X2963039Y-3867984D01*
X2963039Y-3867984D02*
X2943991Y-3858460D01*
X2943991Y-3858460D02*
X2934467Y-3848936D01*
X2934467Y-3848936D02*
X2924943Y-3829888D01*
X2924943Y-3829888D02*
X2915420Y-3791793D01*
X2915420Y-3791793D02*
X2915420Y-3744174D01*
X2915420Y-3744174D02*
X2924943Y-3706079D01*
X2924943Y-3706079D02*
X2934467Y-3687031D01*
X2934467Y-3687031D02*
X2943991Y-3677508D01*
X2943991Y-3677508D02*
X2963039Y-3667984D01*
X3115420Y-3867984D02*
X3115420Y-3734650D01*
X3115420Y-3753698D02*
X3124943Y-3744174D01*
X3124943Y-3744174D02*
X3143991Y-3734650D01*
X3143991Y-3734650D02*
X3172563Y-3734650D01*
X3172563Y-3734650D02*
X3191610Y-3744174D01*
X3191610Y-3744174D02*
X3201134Y-3763222D01*
X3201134Y-3763222D02*
X3201134Y-3867984D01*
X3201134Y-3763222D02*
X3210658Y-3744174D01*
X3210658Y-3744174D02*
X3229705Y-3734650D01*
X3229705Y-3734650D02*
X3258277Y-3734650D01*
X3258277Y-3734650D02*
X3277324Y-3744174D01*
X3277324Y-3744174D02*
X3286848Y-3763222D01*
X3286848Y-3763222D02*
X3286848Y-3867984D01*
X3382086Y-3867984D02*
X3382086Y-3734650D01*
X3382086Y-3753698D02*
X3391610Y-3744174D01*
X3391610Y-3744174D02*
X3410658Y-3734650D01*
X3410658Y-3734650D02*
X3439229Y-3734650D01*
X3439229Y-3734650D02*
X3458277Y-3744174D01*
X3458277Y-3744174D02*
X3467801Y-3763222D01*
X3467801Y-3763222D02*
X3467801Y-3867984D01*
X3467801Y-3763222D02*
X3477324Y-3744174D01*
X3477324Y-3744174D02*
X3496372Y-3734650D01*
X3496372Y-3734650D02*
X3524943Y-3734650D01*
X3524943Y-3734650D02*
X3543991Y-3744174D01*
X3543991Y-3744174D02*
X3553515Y-3763222D01*
X3553515Y-3763222D02*
X3553515Y-3867984D01*
X3943991Y-3658460D02*
X3772563Y-3915603D01*
X4201134Y-3667984D02*
X4220182Y-3667984D01*
X4220182Y-3667984D02*
X4239229Y-3677508D01*
X4239229Y-3677508D02*
X4248753Y-3687031D01*
X4248753Y-3687031D02*
X4258277Y-3706079D01*
X4258277Y-3706079D02*
X4267801Y-3744174D01*
X4267801Y-3744174D02*
X4267801Y-3791793D01*
X4267801Y-3791793D02*
X4258277Y-3829888D01*
X4258277Y-3829888D02*
X4248753Y-3848936D01*
X4248753Y-3848936D02*
X4239229Y-3858460D01*
X4239229Y-3858460D02*
X4220182Y-3867984D01*
X4220182Y-3867984D02*
X4201134Y-3867984D01*
X4201134Y-3867984D02*
X4182086Y-3858460D01*
X4182086Y-3858460D02*
X4172563Y-3848936D01*
X4172563Y-3848936D02*
X4163039Y-3829888D01*
X4163039Y-3829888D02*
X4153515Y-3791793D01*
X4153515Y-3791793D02*
X4153515Y-3744174D01*
X4153515Y-3744174D02*
X4163039Y-3706079D01*
X4163039Y-3706079D02*
X4172563Y-3687031D01*
X4172563Y-3687031D02*
X4182086Y-3677508D01*
X4182086Y-3677508D02*
X4201134Y-3667984D01*
X4353515Y-3848936D02*
X4363039Y-3858460D01*
X4363039Y-3858460D02*
X4353515Y-3867984D01*
X4353515Y-3867984D02*
X4343991Y-3858460D01*
X4343991Y-3858460D02*
X4353515Y-3848936D01*
X4353515Y-3848936D02*
X4353515Y-3867984D01*
X4486848Y-3667984D02*
X4505896Y-3667984D01*
X4505896Y-3667984D02*
X4524944Y-3677508D01*
X4524944Y-3677508D02*
X4534468Y-3687031D01*
X4534468Y-3687031D02*
X4543991Y-3706079D01*
X4543991Y-3706079D02*
X4553515Y-3744174D01*
X4553515Y-3744174D02*
X4553515Y-3791793D01*
X4553515Y-3791793D02*
X4543991Y-3829888D01*
X4543991Y-3829888D02*
X4534468Y-3848936D01*
X4534468Y-3848936D02*
X4524944Y-3858460D01*
X4524944Y-3858460D02*
X4505896Y-3867984D01*
X4505896Y-3867984D02*
X4486848Y-3867984D01*
X4486848Y-3867984D02*
X4467801Y-3858460D01*
X4467801Y-3858460D02*
X4458277Y-3848936D01*
X4458277Y-3848936D02*
X4448753Y-3829888D01*
X4448753Y-3829888D02*
X4439229Y-3791793D01*
X4439229Y-3791793D02*
X4439229Y-3744174D01*
X4439229Y-3744174D02*
X4448753Y-3706079D01*
X4448753Y-3706079D02*
X4458277Y-3687031D01*
X4458277Y-3687031D02*
X4467801Y-3677508D01*
X4467801Y-3677508D02*
X4486848Y-3667984D01*
X4620182Y-3667984D02*
X4743991Y-3667984D01*
X4743991Y-3667984D02*
X4677325Y-3744174D01*
X4677325Y-3744174D02*
X4705896Y-3744174D01*
X4705896Y-3744174D02*
X4724944Y-3753698D01*
X4724944Y-3753698D02*
X4734468Y-3763222D01*
X4734468Y-3763222D02*
X4743991Y-3782269D01*
X4743991Y-3782269D02*
X4743991Y-3829888D01*
X4743991Y-3829888D02*
X4734468Y-3848936D01*
X4734468Y-3848936D02*
X4724944Y-3858460D01*
X4724944Y-3858460D02*
X4705896Y-3867984D01*
X4705896Y-3867984D02*
X4648753Y-3867984D01*
X4648753Y-3867984D02*
X4629706Y-3858460D01*
X4629706Y-3858460D02*
X4620182Y-3848936D01*
X4839229Y-3867984D02*
X4877325Y-3867984D01*
X4877325Y-3867984D02*
X4896372Y-3858460D01*
X4896372Y-3858460D02*
X4905896Y-3848936D01*
X4905896Y-3848936D02*
X4924944Y-3820365D01*
X4924944Y-3820365D02*
X4934468Y-3782269D01*
X4934468Y-3782269D02*
X4934468Y-3706079D01*
X4934468Y-3706079D02*
X4924944Y-3687031D01*
X4924944Y-3687031D02*
X4915420Y-3677508D01*
X4915420Y-3677508D02*
X4896372Y-3667984D01*
X4896372Y-3667984D02*
X4858277Y-3667984D01*
X4858277Y-3667984D02*
X4839229Y-3677508D01*
X4839229Y-3677508D02*
X4829706Y-3687031D01*
X4829706Y-3687031D02*
X4820182Y-3706079D01*
X4820182Y-3706079D02*
X4820182Y-3753698D01*
X4820182Y-3753698D02*
X4829706Y-3772746D01*
X4829706Y-3772746D02*
X4839229Y-3782269D01*
X4839229Y-3782269D02*
X4858277Y-3791793D01*
X4858277Y-3791793D02*
X4896372Y-3791793D01*
X4896372Y-3791793D02*
X4915420Y-3782269D01*
X4915420Y-3782269D02*
X4924944Y-3772746D01*
X4924944Y-3772746D02*
X4934468Y-3753698D01*
X5105896Y-3734650D02*
X5105896Y-3867984D01*
X5058277Y-3658460D02*
X5010658Y-3801317D01*
X5010658Y-3801317D02*
X5134468Y-3801317D01*
X5201134Y-3667984D02*
X5201134Y-3706079D01*
X5277325Y-3667984D02*
X5277325Y-3706079D01*
X5572563Y-3944174D02*
X5563039Y-3934650D01*
X5563039Y-3934650D02*
X5543991Y-3906079D01*
X5543991Y-3906079D02*
X5534468Y-3887031D01*
X5534468Y-3887031D02*
X5524944Y-3858460D01*
X5524944Y-3858460D02*
X5515420Y-3810841D01*
X5515420Y-3810841D02*
X5515420Y-3772746D01*
X5515420Y-3772746D02*
X5524944Y-3725127D01*
X5524944Y-3725127D02*
X5534468Y-3696555D01*
X5534468Y-3696555D02*
X5543991Y-3677508D01*
X5543991Y-3677508D02*
X5563039Y-3648936D01*
X5563039Y-3648936D02*
X5572563Y-3639412D01*
X5629706Y-3667984D02*
X5753515Y-3667984D01*
X5753515Y-3667984D02*
X5686848Y-3744174D01*
X5686848Y-3744174D02*
X5715420Y-3744174D01*
X5715420Y-3744174D02*
X5734468Y-3753698D01*
X5734468Y-3753698D02*
X5743991Y-3763222D01*
X5743991Y-3763222D02*
X5753515Y-3782269D01*
X5753515Y-3782269D02*
X5753515Y-3829888D01*
X5753515Y-3829888D02*
X5743991Y-3848936D01*
X5743991Y-3848936D02*
X5734468Y-3858460D01*
X5734468Y-3858460D02*
X5715420Y-3867984D01*
X5715420Y-3867984D02*
X5658277Y-3867984D01*
X5658277Y-3867984D02*
X5639229Y-3858460D01*
X5639229Y-3858460D02*
X5629706Y-3848936D01*
X5991610Y-3867984D02*
X5991610Y-3667984D01*
X6077325Y-3867984D02*
X6077325Y-3763222D01*
X6077325Y-3763222D02*
X6067801Y-3744174D01*
X6067801Y-3744174D02*
X6048753Y-3734650D01*
X6048753Y-3734650D02*
X6020182Y-3734650D01*
X6020182Y-3734650D02*
X6001134Y-3744174D01*
X6001134Y-3744174D02*
X5991610Y-3753698D01*
X6201134Y-3867984D02*
X6182087Y-3858460D01*
X6182087Y-3858460D02*
X6172563Y-3848936D01*
X6172563Y-3848936D02*
X6163039Y-3829888D01*
X6163039Y-3829888D02*
X6163039Y-3772746D01*
X6163039Y-3772746D02*
X6172563Y-3753698D01*
X6172563Y-3753698D02*
X6182087Y-3744174D01*
X6182087Y-3744174D02*
X6201134Y-3734650D01*
X6201134Y-3734650D02*
X6229706Y-3734650D01*
X6229706Y-3734650D02*
X6248753Y-3744174D01*
X6248753Y-3744174D02*
X6258277Y-3753698D01*
X6258277Y-3753698D02*
X6267801Y-3772746D01*
X6267801Y-3772746D02*
X6267801Y-3829888D01*
X6267801Y-3829888D02*
X6258277Y-3848936D01*
X6258277Y-3848936D02*
X6248753Y-3858460D01*
X6248753Y-3858460D02*
X6229706Y-3867984D01*
X6229706Y-3867984D02*
X6201134Y-3867984D01*
X6382087Y-3867984D02*
X6363039Y-3858460D01*
X6363039Y-3858460D02*
X6353515Y-3839412D01*
X6353515Y-3839412D02*
X6353515Y-3667984D01*
X6534468Y-3858460D02*
X6515420Y-3867984D01*
X6515420Y-3867984D02*
X6477325Y-3867984D01*
X6477325Y-3867984D02*
X6458277Y-3858460D01*
X6458277Y-3858460D02*
X6448753Y-3839412D01*
X6448753Y-3839412D02*
X6448753Y-3763222D01*
X6448753Y-3763222D02*
X6458277Y-3744174D01*
X6458277Y-3744174D02*
X6477325Y-3734650D01*
X6477325Y-3734650D02*
X6515420Y-3734650D01*
X6515420Y-3734650D02*
X6534468Y-3744174D01*
X6534468Y-3744174D02*
X6543991Y-3763222D01*
X6543991Y-3763222D02*
X6543991Y-3782269D01*
X6543991Y-3782269D02*
X6448753Y-3801317D01*
X6620182Y-3858460D02*
X6639230Y-3867984D01*
X6639230Y-3867984D02*
X6677325Y-3867984D01*
X6677325Y-3867984D02*
X6696372Y-3858460D01*
X6696372Y-3858460D02*
X6705896Y-3839412D01*
X6705896Y-3839412D02*
X6705896Y-3829888D01*
X6705896Y-3829888D02*
X6696372Y-3810841D01*
X6696372Y-3810841D02*
X6677325Y-3801317D01*
X6677325Y-3801317D02*
X6648753Y-3801317D01*
X6648753Y-3801317D02*
X6629706Y-3791793D01*
X6629706Y-3791793D02*
X6620182Y-3772746D01*
X6620182Y-3772746D02*
X6620182Y-3763222D01*
X6620182Y-3763222D02*
X6629706Y-3744174D01*
X6629706Y-3744174D02*
X6648753Y-3734650D01*
X6648753Y-3734650D02*
X6677325Y-3734650D01*
X6677325Y-3734650D02*
X6696372Y-3744174D01*
X6772563Y-3944174D02*
X6782087Y-3934650D01*
X6782087Y-3934650D02*
X6801134Y-3906079D01*
X6801134Y-3906079D02*
X6810658Y-3887031D01*
X6810658Y-3887031D02*
X6820182Y-3858460D01*
X6820182Y-3858460D02*
X6829706Y-3810841D01*
X6829706Y-3810841D02*
X6829706Y-3772746D01*
X6829706Y-3772746D02*
X6820182Y-3725127D01*
X6820182Y-3725127D02*
X6810658Y-3696555D01*
X6810658Y-3696555D02*
X6801134Y-3677508D01*
X6801134Y-3677508D02*
X6782087Y-3648936D01*
X6782087Y-3648936D02*
X6772563Y-3639412D01*
D13*
X1912500Y-3955500D02*
X1912500Y-4125500D01*
X1827500Y-4040500D02*
X1997500Y-4040500D01*
D11*
X2363039Y-4131984D02*
X2248753Y-4131984D01*
X2305896Y-4131984D02*
X2305896Y-3931984D01*
X2305896Y-3931984D02*
X2286848Y-3960555D01*
X2286848Y-3960555D02*
X2267801Y-3979603D01*
X2267801Y-3979603D02*
X2248753Y-3989127D01*
X2448753Y-4112936D02*
X2458277Y-4122460D01*
X2458277Y-4122460D02*
X2448753Y-4131984D01*
X2448753Y-4131984D02*
X2439229Y-4122460D01*
X2439229Y-4122460D02*
X2448753Y-4112936D01*
X2448753Y-4112936D02*
X2448753Y-4131984D01*
X2524944Y-3931984D02*
X2658277Y-3931984D01*
X2658277Y-3931984D02*
X2572563Y-4131984D01*
X2772563Y-3931984D02*
X2791610Y-3931984D01*
X2791610Y-3931984D02*
X2810658Y-3941508D01*
X2810658Y-3941508D02*
X2820182Y-3951031D01*
X2820182Y-3951031D02*
X2829705Y-3970079D01*
X2829705Y-3970079D02*
X2839229Y-4008174D01*
X2839229Y-4008174D02*
X2839229Y-4055793D01*
X2839229Y-4055793D02*
X2829705Y-4093888D01*
X2829705Y-4093888D02*
X2820182Y-4112936D01*
X2820182Y-4112936D02*
X2810658Y-4122460D01*
X2810658Y-4122460D02*
X2791610Y-4131984D01*
X2791610Y-4131984D02*
X2772563Y-4131984D01*
X2772563Y-4131984D02*
X2753515Y-4122460D01*
X2753515Y-4122460D02*
X2743991Y-4112936D01*
X2743991Y-4112936D02*
X2734467Y-4093888D01*
X2734467Y-4093888D02*
X2724944Y-4055793D01*
X2724944Y-4055793D02*
X2724944Y-4008174D01*
X2724944Y-4008174D02*
X2734467Y-3970079D01*
X2734467Y-3970079D02*
X2743991Y-3951031D01*
X2743991Y-3951031D02*
X2753515Y-3941508D01*
X2753515Y-3941508D02*
X2772563Y-3931984D01*
X2963039Y-3931984D02*
X2982086Y-3931984D01*
X2982086Y-3931984D02*
X3001134Y-3941508D01*
X3001134Y-3941508D02*
X3010658Y-3951031D01*
X3010658Y-3951031D02*
X3020182Y-3970079D01*
X3020182Y-3970079D02*
X3029705Y-4008174D01*
X3029705Y-4008174D02*
X3029705Y-4055793D01*
X3029705Y-4055793D02*
X3020182Y-4093888D01*
X3020182Y-4093888D02*
X3010658Y-4112936D01*
X3010658Y-4112936D02*
X3001134Y-4122460D01*
X3001134Y-4122460D02*
X2982086Y-4131984D01*
X2982086Y-4131984D02*
X2963039Y-4131984D01*
X2963039Y-4131984D02*
X2943991Y-4122460D01*
X2943991Y-4122460D02*
X2934467Y-4112936D01*
X2934467Y-4112936D02*
X2924943Y-4093888D01*
X2924943Y-4093888D02*
X2915420Y-4055793D01*
X2915420Y-4055793D02*
X2915420Y-4008174D01*
X2915420Y-4008174D02*
X2924943Y-3970079D01*
X2924943Y-3970079D02*
X2934467Y-3951031D01*
X2934467Y-3951031D02*
X2943991Y-3941508D01*
X2943991Y-3941508D02*
X2963039Y-3931984D01*
X3115420Y-4131984D02*
X3115420Y-3998650D01*
X3115420Y-4017698D02*
X3124943Y-4008174D01*
X3124943Y-4008174D02*
X3143991Y-3998650D01*
X3143991Y-3998650D02*
X3172563Y-3998650D01*
X3172563Y-3998650D02*
X3191610Y-4008174D01*
X3191610Y-4008174D02*
X3201134Y-4027222D01*
X3201134Y-4027222D02*
X3201134Y-4131984D01*
X3201134Y-4027222D02*
X3210658Y-4008174D01*
X3210658Y-4008174D02*
X3229705Y-3998650D01*
X3229705Y-3998650D02*
X3258277Y-3998650D01*
X3258277Y-3998650D02*
X3277324Y-4008174D01*
X3277324Y-4008174D02*
X3286848Y-4027222D01*
X3286848Y-4027222D02*
X3286848Y-4131984D01*
X3382086Y-4131984D02*
X3382086Y-3998650D01*
X3382086Y-4017698D02*
X3391610Y-4008174D01*
X3391610Y-4008174D02*
X3410658Y-3998650D01*
X3410658Y-3998650D02*
X3439229Y-3998650D01*
X3439229Y-3998650D02*
X3458277Y-4008174D01*
X3458277Y-4008174D02*
X3467801Y-4027222D01*
X3467801Y-4027222D02*
X3467801Y-4131984D01*
X3467801Y-4027222D02*
X3477324Y-4008174D01*
X3477324Y-4008174D02*
X3496372Y-3998650D01*
X3496372Y-3998650D02*
X3524943Y-3998650D01*
X3524943Y-3998650D02*
X3543991Y-4008174D01*
X3543991Y-4008174D02*
X3553515Y-4027222D01*
X3553515Y-4027222D02*
X3553515Y-4131984D01*
X3943991Y-3922460D02*
X3772563Y-4179603D01*
X4201134Y-3931984D02*
X4220182Y-3931984D01*
X4220182Y-3931984D02*
X4239229Y-3941508D01*
X4239229Y-3941508D02*
X4248753Y-3951031D01*
X4248753Y-3951031D02*
X4258277Y-3970079D01*
X4258277Y-3970079D02*
X4267801Y-4008174D01*
X4267801Y-4008174D02*
X4267801Y-4055793D01*
X4267801Y-4055793D02*
X4258277Y-4093888D01*
X4258277Y-4093888D02*
X4248753Y-4112936D01*
X4248753Y-4112936D02*
X4239229Y-4122460D01*
X4239229Y-4122460D02*
X4220182Y-4131984D01*
X4220182Y-4131984D02*
X4201134Y-4131984D01*
X4201134Y-4131984D02*
X4182086Y-4122460D01*
X4182086Y-4122460D02*
X4172563Y-4112936D01*
X4172563Y-4112936D02*
X4163039Y-4093888D01*
X4163039Y-4093888D02*
X4153515Y-4055793D01*
X4153515Y-4055793D02*
X4153515Y-4008174D01*
X4153515Y-4008174D02*
X4163039Y-3970079D01*
X4163039Y-3970079D02*
X4172563Y-3951031D01*
X4172563Y-3951031D02*
X4182086Y-3941508D01*
X4182086Y-3941508D02*
X4201134Y-3931984D01*
X4353515Y-4112936D02*
X4363039Y-4122460D01*
X4363039Y-4122460D02*
X4353515Y-4131984D01*
X4353515Y-4131984D02*
X4343991Y-4122460D01*
X4343991Y-4122460D02*
X4353515Y-4112936D01*
X4353515Y-4112936D02*
X4353515Y-4131984D01*
X4486848Y-3931984D02*
X4505896Y-3931984D01*
X4505896Y-3931984D02*
X4524944Y-3941508D01*
X4524944Y-3941508D02*
X4534468Y-3951031D01*
X4534468Y-3951031D02*
X4543991Y-3970079D01*
X4543991Y-3970079D02*
X4553515Y-4008174D01*
X4553515Y-4008174D02*
X4553515Y-4055793D01*
X4553515Y-4055793D02*
X4543991Y-4093888D01*
X4543991Y-4093888D02*
X4534468Y-4112936D01*
X4534468Y-4112936D02*
X4524944Y-4122460D01*
X4524944Y-4122460D02*
X4505896Y-4131984D01*
X4505896Y-4131984D02*
X4486848Y-4131984D01*
X4486848Y-4131984D02*
X4467801Y-4122460D01*
X4467801Y-4122460D02*
X4458277Y-4112936D01*
X4458277Y-4112936D02*
X4448753Y-4093888D01*
X4448753Y-4093888D02*
X4439229Y-4055793D01*
X4439229Y-4055793D02*
X4439229Y-4008174D01*
X4439229Y-4008174D02*
X4448753Y-3970079D01*
X4448753Y-3970079D02*
X4458277Y-3951031D01*
X4458277Y-3951031D02*
X4467801Y-3941508D01*
X4467801Y-3941508D02*
X4486848Y-3931984D01*
X4724944Y-3931984D02*
X4686848Y-3931984D01*
X4686848Y-3931984D02*
X4667801Y-3941508D01*
X4667801Y-3941508D02*
X4658277Y-3951031D01*
X4658277Y-3951031D02*
X4639229Y-3979603D01*
X4639229Y-3979603D02*
X4629706Y-4017698D01*
X4629706Y-4017698D02*
X4629706Y-4093888D01*
X4629706Y-4093888D02*
X4639229Y-4112936D01*
X4639229Y-4112936D02*
X4648753Y-4122460D01*
X4648753Y-4122460D02*
X4667801Y-4131984D01*
X4667801Y-4131984D02*
X4705896Y-4131984D01*
X4705896Y-4131984D02*
X4724944Y-4122460D01*
X4724944Y-4122460D02*
X4734468Y-4112936D01*
X4734468Y-4112936D02*
X4743991Y-4093888D01*
X4743991Y-4093888D02*
X4743991Y-4046269D01*
X4743991Y-4046269D02*
X4734468Y-4027222D01*
X4734468Y-4027222D02*
X4724944Y-4017698D01*
X4724944Y-4017698D02*
X4705896Y-4008174D01*
X4705896Y-4008174D02*
X4667801Y-4008174D01*
X4667801Y-4008174D02*
X4648753Y-4017698D01*
X4648753Y-4017698D02*
X4639229Y-4027222D01*
X4639229Y-4027222D02*
X4629706Y-4046269D01*
X4915420Y-3931984D02*
X4877325Y-3931984D01*
X4877325Y-3931984D02*
X4858277Y-3941508D01*
X4858277Y-3941508D02*
X4848753Y-3951031D01*
X4848753Y-3951031D02*
X4829706Y-3979603D01*
X4829706Y-3979603D02*
X4820182Y-4017698D01*
X4820182Y-4017698D02*
X4820182Y-4093888D01*
X4820182Y-4093888D02*
X4829706Y-4112936D01*
X4829706Y-4112936D02*
X4839229Y-4122460D01*
X4839229Y-4122460D02*
X4858277Y-4131984D01*
X4858277Y-4131984D02*
X4896372Y-4131984D01*
X4896372Y-4131984D02*
X4915420Y-4122460D01*
X4915420Y-4122460D02*
X4924944Y-4112936D01*
X4924944Y-4112936D02*
X4934468Y-4093888D01*
X4934468Y-4093888D02*
X4934468Y-4046269D01*
X4934468Y-4046269D02*
X4924944Y-4027222D01*
X4924944Y-4027222D02*
X4915420Y-4017698D01*
X4915420Y-4017698D02*
X4896372Y-4008174D01*
X4896372Y-4008174D02*
X4858277Y-4008174D01*
X4858277Y-4008174D02*
X4839229Y-4017698D01*
X4839229Y-4017698D02*
X4829706Y-4027222D01*
X4829706Y-4027222D02*
X4820182Y-4046269D01*
X5029706Y-4131984D02*
X5067801Y-4131984D01*
X5067801Y-4131984D02*
X5086849Y-4122460D01*
X5086849Y-4122460D02*
X5096372Y-4112936D01*
X5096372Y-4112936D02*
X5115420Y-4084365D01*
X5115420Y-4084365D02*
X5124944Y-4046269D01*
X5124944Y-4046269D02*
X5124944Y-3970079D01*
X5124944Y-3970079D02*
X5115420Y-3951031D01*
X5115420Y-3951031D02*
X5105896Y-3941508D01*
X5105896Y-3941508D02*
X5086849Y-3931984D01*
X5086849Y-3931984D02*
X5048753Y-3931984D01*
X5048753Y-3931984D02*
X5029706Y-3941508D01*
X5029706Y-3941508D02*
X5020182Y-3951031D01*
X5020182Y-3951031D02*
X5010658Y-3970079D01*
X5010658Y-3970079D02*
X5010658Y-4017698D01*
X5010658Y-4017698D02*
X5020182Y-4036746D01*
X5020182Y-4036746D02*
X5029706Y-4046269D01*
X5029706Y-4046269D02*
X5048753Y-4055793D01*
X5048753Y-4055793D02*
X5086849Y-4055793D01*
X5086849Y-4055793D02*
X5105896Y-4046269D01*
X5105896Y-4046269D02*
X5115420Y-4036746D01*
X5115420Y-4036746D02*
X5124944Y-4017698D01*
X5201134Y-3931984D02*
X5201134Y-3970079D01*
X5277325Y-3931984D02*
X5277325Y-3970079D01*
X5572563Y-4208174D02*
X5563039Y-4198650D01*
X5563039Y-4198650D02*
X5543991Y-4170079D01*
X5543991Y-4170079D02*
X5534468Y-4151031D01*
X5534468Y-4151031D02*
X5524944Y-4122460D01*
X5524944Y-4122460D02*
X5515420Y-4074841D01*
X5515420Y-4074841D02*
X5515420Y-4036746D01*
X5515420Y-4036746D02*
X5524944Y-3989127D01*
X5524944Y-3989127D02*
X5534468Y-3960555D01*
X5534468Y-3960555D02*
X5543991Y-3941508D01*
X5543991Y-3941508D02*
X5563039Y-3912936D01*
X5563039Y-3912936D02*
X5572563Y-3903412D01*
X5686848Y-3931984D02*
X5705896Y-3931984D01*
X5705896Y-3931984D02*
X5724944Y-3941508D01*
X5724944Y-3941508D02*
X5734468Y-3951031D01*
X5734468Y-3951031D02*
X5743991Y-3970079D01*
X5743991Y-3970079D02*
X5753515Y-4008174D01*
X5753515Y-4008174D02*
X5753515Y-4055793D01*
X5753515Y-4055793D02*
X5743991Y-4093888D01*
X5743991Y-4093888D02*
X5734468Y-4112936D01*
X5734468Y-4112936D02*
X5724944Y-4122460D01*
X5724944Y-4122460D02*
X5705896Y-4131984D01*
X5705896Y-4131984D02*
X5686848Y-4131984D01*
X5686848Y-4131984D02*
X5667801Y-4122460D01*
X5667801Y-4122460D02*
X5658277Y-4112936D01*
X5658277Y-4112936D02*
X5648753Y-4093888D01*
X5648753Y-4093888D02*
X5639229Y-4055793D01*
X5639229Y-4055793D02*
X5639229Y-4008174D01*
X5639229Y-4008174D02*
X5648753Y-3970079D01*
X5648753Y-3970079D02*
X5658277Y-3951031D01*
X5658277Y-3951031D02*
X5667801Y-3941508D01*
X5667801Y-3941508D02*
X5686848Y-3931984D01*
X5991610Y-4131984D02*
X5991610Y-3931984D01*
X6077325Y-4131984D02*
X6077325Y-4027222D01*
X6077325Y-4027222D02*
X6067801Y-4008174D01*
X6067801Y-4008174D02*
X6048753Y-3998650D01*
X6048753Y-3998650D02*
X6020182Y-3998650D01*
X6020182Y-3998650D02*
X6001134Y-4008174D01*
X6001134Y-4008174D02*
X5991610Y-4017698D01*
X6201134Y-4131984D02*
X6182087Y-4122460D01*
X6182087Y-4122460D02*
X6172563Y-4112936D01*
X6172563Y-4112936D02*
X6163039Y-4093888D01*
X6163039Y-4093888D02*
X6163039Y-4036746D01*
X6163039Y-4036746D02*
X6172563Y-4017698D01*
X6172563Y-4017698D02*
X6182087Y-4008174D01*
X6182087Y-4008174D02*
X6201134Y-3998650D01*
X6201134Y-3998650D02*
X6229706Y-3998650D01*
X6229706Y-3998650D02*
X6248753Y-4008174D01*
X6248753Y-4008174D02*
X6258277Y-4017698D01*
X6258277Y-4017698D02*
X6267801Y-4036746D01*
X6267801Y-4036746D02*
X6267801Y-4093888D01*
X6267801Y-4093888D02*
X6258277Y-4112936D01*
X6258277Y-4112936D02*
X6248753Y-4122460D01*
X6248753Y-4122460D02*
X6229706Y-4131984D01*
X6229706Y-4131984D02*
X6201134Y-4131984D01*
X6382087Y-4131984D02*
X6363039Y-4122460D01*
X6363039Y-4122460D02*
X6353515Y-4103412D01*
X6353515Y-4103412D02*
X6353515Y-3931984D01*
X6534468Y-4122460D02*
X6515420Y-4131984D01*
X6515420Y-4131984D02*
X6477325Y-4131984D01*
X6477325Y-4131984D02*
X6458277Y-4122460D01*
X6458277Y-4122460D02*
X6448753Y-4103412D01*
X6448753Y-4103412D02*
X6448753Y-4027222D01*
X6448753Y-4027222D02*
X6458277Y-4008174D01*
X6458277Y-4008174D02*
X6477325Y-3998650D01*
X6477325Y-3998650D02*
X6515420Y-3998650D01*
X6515420Y-3998650D02*
X6534468Y-4008174D01*
X6534468Y-4008174D02*
X6543991Y-4027222D01*
X6543991Y-4027222D02*
X6543991Y-4046269D01*
X6543991Y-4046269D02*
X6448753Y-4065317D01*
X6620182Y-4122460D02*
X6639230Y-4131984D01*
X6639230Y-4131984D02*
X6677325Y-4131984D01*
X6677325Y-4131984D02*
X6696372Y-4122460D01*
X6696372Y-4122460D02*
X6705896Y-4103412D01*
X6705896Y-4103412D02*
X6705896Y-4093888D01*
X6705896Y-4093888D02*
X6696372Y-4074841D01*
X6696372Y-4074841D02*
X6677325Y-4065317D01*
X6677325Y-4065317D02*
X6648753Y-4065317D01*
X6648753Y-4065317D02*
X6629706Y-4055793D01*
X6629706Y-4055793D02*
X6620182Y-4036746D01*
X6620182Y-4036746D02*
X6620182Y-4027222D01*
X6620182Y-4027222D02*
X6629706Y-4008174D01*
X6629706Y-4008174D02*
X6648753Y-3998650D01*
X6648753Y-3998650D02*
X6677325Y-3998650D01*
X6677325Y-3998650D02*
X6696372Y-4008174D01*
X6943992Y-4055793D02*
X7096373Y-4055793D01*
X7020182Y-4131984D02*
X7020182Y-3979603D01*
X7334468Y-3951031D02*
X7343992Y-3941508D01*
X7343992Y-3941508D02*
X7363039Y-3931984D01*
X7363039Y-3931984D02*
X7410658Y-3931984D01*
X7410658Y-3931984D02*
X7429706Y-3941508D01*
X7429706Y-3941508D02*
X7439230Y-3951031D01*
X7439230Y-3951031D02*
X7448753Y-3970079D01*
X7448753Y-3970079D02*
X7448753Y-3989127D01*
X7448753Y-3989127D02*
X7439230Y-4017698D01*
X7439230Y-4017698D02*
X7324944Y-4131984D01*
X7324944Y-4131984D02*
X7448753Y-4131984D01*
X7677325Y-4122460D02*
X7696373Y-4131984D01*
X7696373Y-4131984D02*
X7734468Y-4131984D01*
X7734468Y-4131984D02*
X7753515Y-4122460D01*
X7753515Y-4122460D02*
X7763039Y-4103412D01*
X7763039Y-4103412D02*
X7763039Y-4093888D01*
X7763039Y-4093888D02*
X7753515Y-4074841D01*
X7753515Y-4074841D02*
X7734468Y-4065317D01*
X7734468Y-4065317D02*
X7705896Y-4065317D01*
X7705896Y-4065317D02*
X7686849Y-4055793D01*
X7686849Y-4055793D02*
X7677325Y-4036746D01*
X7677325Y-4036746D02*
X7677325Y-4027222D01*
X7677325Y-4027222D02*
X7686849Y-4008174D01*
X7686849Y-4008174D02*
X7705896Y-3998650D01*
X7705896Y-3998650D02*
X7734468Y-3998650D01*
X7734468Y-3998650D02*
X7753515Y-4008174D01*
X7877325Y-4131984D02*
X7858277Y-4122460D01*
X7858277Y-4122460D02*
X7848754Y-4103412D01*
X7848754Y-4103412D02*
X7848754Y-3931984D01*
X7982087Y-4131984D02*
X7963039Y-4122460D01*
X7963039Y-4122460D02*
X7953515Y-4112936D01*
X7953515Y-4112936D02*
X7943992Y-4093888D01*
X7943992Y-4093888D02*
X7943992Y-4036746D01*
X7943992Y-4036746D02*
X7953515Y-4017698D01*
X7953515Y-4017698D02*
X7963039Y-4008174D01*
X7963039Y-4008174D02*
X7982087Y-3998650D01*
X7982087Y-3998650D02*
X8010658Y-3998650D01*
X8010658Y-3998650D02*
X8029706Y-4008174D01*
X8029706Y-4008174D02*
X8039230Y-4017698D01*
X8039230Y-4017698D02*
X8048754Y-4036746D01*
X8048754Y-4036746D02*
X8048754Y-4093888D01*
X8048754Y-4093888D02*
X8039230Y-4112936D01*
X8039230Y-4112936D02*
X8029706Y-4122460D01*
X8029706Y-4122460D02*
X8010658Y-4131984D01*
X8010658Y-4131984D02*
X7982087Y-4131984D01*
X8105896Y-3998650D02*
X8182087Y-3998650D01*
X8134468Y-3931984D02*
X8134468Y-4103412D01*
X8134468Y-4103412D02*
X8143992Y-4122460D01*
X8143992Y-4122460D02*
X8163039Y-4131984D01*
X8163039Y-4131984D02*
X8182087Y-4131984D01*
X8239230Y-4122460D02*
X8258277Y-4131984D01*
X8258277Y-4131984D02*
X8296373Y-4131984D01*
X8296373Y-4131984D02*
X8315420Y-4122460D01*
X8315420Y-4122460D02*
X8324944Y-4103412D01*
X8324944Y-4103412D02*
X8324944Y-4093888D01*
X8324944Y-4093888D02*
X8315420Y-4074841D01*
X8315420Y-4074841D02*
X8296373Y-4065317D01*
X8296373Y-4065317D02*
X8267801Y-4065317D01*
X8267801Y-4065317D02*
X8248754Y-4055793D01*
X8248754Y-4055793D02*
X8239230Y-4036746D01*
X8239230Y-4036746D02*
X8239230Y-4027222D01*
X8239230Y-4027222D02*
X8248754Y-4008174D01*
X8248754Y-4008174D02*
X8267801Y-3998650D01*
X8267801Y-3998650D02*
X8296373Y-3998650D01*
X8296373Y-3998650D02*
X8315420Y-4008174D01*
X8391611Y-4208174D02*
X8401135Y-4198650D01*
X8401135Y-4198650D02*
X8420182Y-4170079D01*
X8420182Y-4170079D02*
X8429706Y-4151031D01*
X8429706Y-4151031D02*
X8439230Y-4122460D01*
X8439230Y-4122460D02*
X8448754Y-4074841D01*
X8448754Y-4074841D02*
X8448754Y-4036746D01*
X8448754Y-4036746D02*
X8439230Y-3989127D01*
X8439230Y-3989127D02*
X8429706Y-3960555D01*
X8429706Y-3960555D02*
X8420182Y-3941508D01*
X8420182Y-3941508D02*
X8401135Y-3912936D01*
X8401135Y-3912936D02*
X8391611Y-3903412D01*
M02*
