%TF.GenerationSoftware,KiCad,Pcbnew,8.0.9*%
%TF.CreationDate,2025-07-15T23:28:47+09:00*%
%TF.ProjectId,KPUEncoderPCB,4b505545-6e63-46f6-9465-725043422e6b,rev?*%
%TF.SameCoordinates,Original*%
%TF.FileFunction,Copper,L2,Bot*%
%TF.FilePolarity,Positive*%
%FSLAX46Y46*%
G04 Gerber Fmt 4.6, Leading zero omitted, Abs format (unit mm)*
G04 Created by KiCad (PCBNEW 8.0.9) date 2025-07-15 23:28:47*
%MOMM*%
%LPD*%
G01*
G04 APERTURE LIST*
%TA.AperFunction,ComponentPad*%
%ADD10C,2.000000*%
%TD*%
%TA.AperFunction,ComponentPad*%
%ADD11O,2.300000X2.800000*%
%TD*%
%TA.AperFunction,ComponentPad*%
%ADD12O,1.750000X1.350000*%
%TD*%
%TA.AperFunction,Conductor*%
%ADD13C,0.200000*%
%TD*%
G04 APERTURE END LIST*
D10*
%TO.P,J2,1,Pin_1*%
%TO.N,NET-A*%
X28950000Y-22250000D03*
%TO.P,J2,2,Pin_2*%
%TO.N,NET-B*%
X31450000Y-22250000D03*
%TO.P,J2,3,Pin_3*%
%TO.N,NET-C*%
X33950000Y-22250000D03*
D11*
%TO.P,J2,4,Pin_4*%
%TO.N,NET-A*%
X26600000Y-24050000D03*
X36300000Y-24050000D03*
%TD*%
D12*
%TO.P,J1,1,Pin_1*%
%TO.N,NET-A*%
X45450000Y-26800000D03*
%TO.P,J1,2,Pin_2*%
%TO.N,NET-B*%
X45450000Y-24800000D03*
%TO.P,J1,3,Pin_3*%
%TO.N,NET-C*%
X45450000Y-22800000D03*
%TD*%
D13*
%TO.N,NET-C*%
X42300000Y-26600000D02*
X44000000Y-24900000D01*
X32900000Y-23300000D02*
X32900000Y-24200000D01*
X32900000Y-24200000D02*
X35300000Y-26600000D01*
X44000000Y-24000000D02*
X45200000Y-22800000D01*
X35300000Y-26600000D02*
X42300000Y-26600000D01*
X33950000Y-22250000D02*
X32900000Y-23300000D01*
X44000000Y-24900000D02*
X44000000Y-24000000D01*
X45200000Y-22800000D02*
X45450000Y-22800000D01*
%TO.N,NET-B*%
X45050000Y-25200000D02*
X44300000Y-25200000D01*
X35100000Y-27000000D02*
X32500000Y-24400000D01*
X44300000Y-25200000D02*
X42500000Y-27000000D01*
X42500000Y-27000000D02*
X35100000Y-27000000D01*
X45450000Y-24800000D02*
X45050000Y-25200000D01*
X32500000Y-24400000D02*
X32500000Y-23300000D01*
X32500000Y-23300000D02*
X31450000Y-22250000D01*
%TD*%
%TA.AperFunction,Conductor*%
%TO.N,NET-A*%
G36*
X47007696Y-20251719D02*
G01*
X47015308Y-20252924D01*
X47061614Y-20260258D01*
X47091067Y-20269827D01*
X47132680Y-20291031D01*
X47157737Y-20309235D01*
X47190764Y-20342262D01*
X47208969Y-20367320D01*
X47229135Y-20406898D01*
X47230170Y-20408928D01*
X47239742Y-20438388D01*
X47248281Y-20492303D01*
X47249500Y-20507789D01*
X47249500Y-28192210D01*
X47248281Y-28207696D01*
X47239742Y-28261611D01*
X47230170Y-28291071D01*
X47208969Y-28332679D01*
X47190764Y-28357737D01*
X47157737Y-28390764D01*
X47132679Y-28408969D01*
X47091071Y-28430170D01*
X47061612Y-28439741D01*
X47007695Y-28448281D01*
X46992211Y-28449500D01*
X36602436Y-28449500D01*
X36597578Y-28449381D01*
X36310849Y-28435295D01*
X36301180Y-28434342D01*
X36019639Y-28392578D01*
X36010112Y-28390683D01*
X35734011Y-28321525D01*
X35724713Y-28318705D01*
X35456720Y-28222815D01*
X35447744Y-28219097D01*
X35190439Y-28097401D01*
X35181871Y-28092821D01*
X34937742Y-27946495D01*
X34929664Y-27941098D01*
X34701039Y-27771538D01*
X34693529Y-27765374D01*
X34480858Y-27572621D01*
X34477338Y-27569271D01*
X33095727Y-26187660D01*
X33095705Y-26187617D01*
X32977361Y-26069275D01*
X32779738Y-25911678D01*
X32779734Y-25911676D01*
X32565709Y-25777198D01*
X32565707Y-25777197D01*
X32337967Y-25667525D01*
X32099379Y-25584042D01*
X32099378Y-25584041D01*
X32099373Y-25584040D01*
X31852945Y-25527798D01*
X31773815Y-25518883D01*
X31601762Y-25499499D01*
X31601761Y-25499499D01*
X31475376Y-25499500D01*
X27962322Y-25499500D01*
X27904131Y-25480593D01*
X27868167Y-25431093D01*
X27868167Y-25369907D01*
X27882229Y-25342309D01*
X28011207Y-25164785D01*
X28129117Y-24933373D01*
X28209371Y-24686373D01*
X28250000Y-24429861D01*
X28250000Y-24300001D01*
X28249999Y-24300000D01*
X27450000Y-24300000D01*
X27450000Y-23800000D01*
X28249999Y-23800000D01*
X28250000Y-23799999D01*
X28250000Y-23734277D01*
X28268907Y-23676086D01*
X28318407Y-23640122D01*
X28379593Y-23640122D01*
X28381145Y-23640641D01*
X28580513Y-23709084D01*
X28825706Y-23750000D01*
X29074294Y-23750000D01*
X29319486Y-23709084D01*
X29554611Y-23628366D01*
X29773233Y-23510054D01*
X29773237Y-23510051D01*
X29820055Y-23473610D01*
X29079408Y-22732962D01*
X29142993Y-22715925D01*
X29257007Y-22650099D01*
X29350099Y-22557007D01*
X29415925Y-22442993D01*
X29432962Y-22379408D01*
X30173435Y-23119881D01*
X30266720Y-22977100D01*
X30314376Y-22938726D01*
X30375486Y-22935692D01*
X30426708Y-22969158D01*
X30430695Y-22974464D01*
X30488398Y-23056872D01*
X30488402Y-23056877D01*
X30643123Y-23211598D01*
X30822361Y-23337102D01*
X31020670Y-23429575D01*
X31232023Y-23486207D01*
X31232027Y-23486207D01*
X31232030Y-23486208D01*
X31449997Y-23505277D01*
X31450000Y-23505277D01*
X31450003Y-23505277D01*
X31667969Y-23486208D01*
X31667970Y-23486207D01*
X31667977Y-23486207D01*
X31879330Y-23429575D01*
X31990111Y-23377915D01*
X32050840Y-23370459D01*
X32101955Y-23397636D01*
X32120504Y-23416185D01*
X32148281Y-23470702D01*
X32149500Y-23486189D01*
X32149500Y-24446144D01*
X32169164Y-24519531D01*
X32173386Y-24535288D01*
X32219530Y-24615212D01*
X34819531Y-27215212D01*
X34819530Y-27215212D01*
X34884787Y-27280468D01*
X34884789Y-27280470D01*
X34933702Y-27308710D01*
X34964712Y-27326614D01*
X35053856Y-27350500D01*
X35053858Y-27350500D01*
X42546142Y-27350500D01*
X42546144Y-27350500D01*
X42635288Y-27326614D01*
X42715212Y-27280470D01*
X44416185Y-25579495D01*
X44470702Y-25551719D01*
X44486189Y-25550500D01*
X44677315Y-25550500D01*
X44732313Y-25567182D01*
X44742890Y-25574249D01*
X44780769Y-25622297D01*
X44783173Y-25683436D01*
X44749181Y-25734310D01*
X44732835Y-25744774D01*
X44634171Y-25795046D01*
X44634169Y-25795047D01*
X44484537Y-25903762D01*
X44353762Y-26034537D01*
X44245048Y-26184168D01*
X44161084Y-26348958D01*
X44103932Y-26524854D01*
X44103931Y-26524860D01*
X44099949Y-26549999D01*
X44099950Y-26550000D01*
X45134314Y-26550000D01*
X45129920Y-26554394D01*
X45077259Y-26645606D01*
X45050000Y-26747339D01*
X45050000Y-26852661D01*
X45077259Y-26954394D01*
X45129920Y-27045606D01*
X45134314Y-27050000D01*
X44099949Y-27050000D01*
X44103931Y-27075139D01*
X44103932Y-27075145D01*
X44161084Y-27251041D01*
X44245048Y-27415831D01*
X44353762Y-27565462D01*
X44484537Y-27696237D01*
X44634168Y-27804951D01*
X44798958Y-27888915D01*
X44974856Y-27946067D01*
X45157523Y-27975000D01*
X45199999Y-27975000D01*
X45200000Y-27974999D01*
X45200000Y-27115686D01*
X45204394Y-27120080D01*
X45295606Y-27172741D01*
X45397339Y-27200000D01*
X45502661Y-27200000D01*
X45604394Y-27172741D01*
X45695606Y-27120080D01*
X45700000Y-27115686D01*
X45700000Y-27974999D01*
X45700001Y-27975000D01*
X45742477Y-27975000D01*
X45925143Y-27946067D01*
X46101041Y-27888915D01*
X46265831Y-27804951D01*
X46415462Y-27696237D01*
X46546237Y-27565462D01*
X46654951Y-27415831D01*
X46738915Y-27251041D01*
X46796067Y-27075145D01*
X46796068Y-27075139D01*
X46800050Y-27050000D01*
X45765686Y-27050000D01*
X45770080Y-27045606D01*
X45822741Y-26954394D01*
X45850000Y-26852661D01*
X45850000Y-26747339D01*
X45822741Y-26645606D01*
X45770080Y-26554394D01*
X45765686Y-26550000D01*
X46800050Y-26550000D01*
X46800050Y-26549999D01*
X46796068Y-26524860D01*
X46796067Y-26524854D01*
X46738915Y-26348958D01*
X46654951Y-26184168D01*
X46546237Y-26034537D01*
X46415462Y-25903762D01*
X46265830Y-25795047D01*
X46265823Y-25795043D01*
X46167165Y-25744774D01*
X46123900Y-25701510D01*
X46114329Y-25641078D01*
X46142107Y-25586561D01*
X46157102Y-25574254D01*
X46239972Y-25518883D01*
X46368883Y-25389972D01*
X46470167Y-25238389D01*
X46539933Y-25069958D01*
X46575500Y-24891154D01*
X46575500Y-24708846D01*
X46539933Y-24530042D01*
X46470167Y-24361611D01*
X46368883Y-24210028D01*
X46239972Y-24081117D01*
X46162417Y-24029297D01*
X46088386Y-23979831D01*
X45919958Y-23910067D01*
X45871249Y-23900378D01*
X45854758Y-23897097D01*
X45801375Y-23867201D01*
X45775759Y-23811636D01*
X45787696Y-23751626D01*
X45832626Y-23710094D01*
X45854757Y-23702902D01*
X45919958Y-23689933D01*
X46088389Y-23620167D01*
X46239972Y-23518883D01*
X46368883Y-23389972D01*
X46470167Y-23238389D01*
X46539933Y-23069958D01*
X46575500Y-22891154D01*
X46575500Y-22708846D01*
X46539933Y-22530042D01*
X46503876Y-22442993D01*
X46470168Y-22361613D01*
X46439574Y-22315826D01*
X46368883Y-22210028D01*
X46239972Y-22081117D01*
X46166497Y-22032023D01*
X46088386Y-21979831D01*
X45919958Y-21910067D01*
X45741156Y-21874500D01*
X45741154Y-21874500D01*
X45158846Y-21874500D01*
X45158843Y-21874500D01*
X44980042Y-21910067D01*
X44980040Y-21910067D01*
X44811613Y-21979831D01*
X44660031Y-22081114D01*
X44531114Y-22210031D01*
X44429831Y-22361613D01*
X44360067Y-22530040D01*
X44360067Y-22530042D01*
X44324500Y-22708843D01*
X44324500Y-22891156D01*
X44360069Y-23069970D01*
X44360135Y-23070186D01*
X44360132Y-23070288D01*
X44361016Y-23074728D01*
X44360041Y-23074921D01*
X44358927Y-23131359D01*
X44335399Y-23168916D01*
X43719530Y-23784787D01*
X43682168Y-23849498D01*
X43682169Y-23849499D01*
X43673386Y-23864711D01*
X43649500Y-23953857D01*
X43649500Y-24713810D01*
X43630593Y-24772001D01*
X43620504Y-24783814D01*
X42183814Y-26220504D01*
X42129297Y-26248281D01*
X42113810Y-26249500D01*
X35486190Y-26249500D01*
X35427999Y-26230593D01*
X35416186Y-26220504D01*
X33279496Y-24083814D01*
X33251719Y-24029297D01*
X33250500Y-24013810D01*
X33250500Y-23486189D01*
X33269407Y-23427998D01*
X33279495Y-23416187D01*
X33298043Y-23397638D01*
X33352558Y-23369859D01*
X33409886Y-23377915D01*
X33520670Y-23429575D01*
X33732023Y-23486207D01*
X33732027Y-23486207D01*
X33732030Y-23486208D01*
X33949997Y-23505277D01*
X33950000Y-23505277D01*
X33950003Y-23505277D01*
X34167969Y-23486208D01*
X34167970Y-23486207D01*
X34167977Y-23486207D01*
X34379330Y-23429575D01*
X34543979Y-23352797D01*
X34604707Y-23345342D01*
X34658221Y-23375005D01*
X34684079Y-23430458D01*
X34683598Y-23458010D01*
X34650000Y-23670138D01*
X34650000Y-23799999D01*
X34650001Y-23800000D01*
X35450000Y-23800000D01*
X35450000Y-24300000D01*
X34650001Y-24300000D01*
X34650000Y-24300001D01*
X34650000Y-24429861D01*
X34690628Y-24686373D01*
X34770882Y-24933373D01*
X34888792Y-25164785D01*
X35041450Y-25374901D01*
X35225098Y-25558549D01*
X35435214Y-25711207D01*
X35666626Y-25829117D01*
X35913626Y-25909371D01*
X36050000Y-25930971D01*
X36050000Y-25116480D01*
X36052064Y-25117335D01*
X36216282Y-25150000D01*
X36383718Y-25150000D01*
X36547936Y-25117335D01*
X36550000Y-25116480D01*
X36550000Y-25930970D01*
X36686373Y-25909371D01*
X36933373Y-25829117D01*
X37164785Y-25711207D01*
X37374901Y-25558549D01*
X37558549Y-25374901D01*
X37711207Y-25164785D01*
X37829117Y-24933373D01*
X37909371Y-24686373D01*
X37950000Y-24429861D01*
X37950000Y-24300001D01*
X37949999Y-24300000D01*
X37150000Y-24300000D01*
X37150000Y-23800000D01*
X37949999Y-23800000D01*
X37950000Y-23799999D01*
X37950000Y-23790180D01*
X39524500Y-23790180D01*
X39524500Y-24009819D01*
X39553167Y-24227567D01*
X39553167Y-24227572D01*
X39585986Y-24350054D01*
X39607370Y-24429861D01*
X39610012Y-24439719D01*
X39610016Y-24439732D01*
X39694063Y-24642643D01*
X39803884Y-24832855D01*
X39937584Y-25007097D01*
X39937586Y-25007099D01*
X39937590Y-25007104D01*
X40092896Y-25162410D01*
X40092900Y-25162413D01*
X40092902Y-25162415D01*
X40095991Y-25164785D01*
X40267145Y-25296116D01*
X40347153Y-25342309D01*
X40457356Y-25405936D01*
X40541440Y-25440764D01*
X40660273Y-25489986D01*
X40872425Y-25546832D01*
X41090182Y-25575500D01*
X41090183Y-25575500D01*
X41309817Y-25575500D01*
X41309818Y-25575500D01*
X41527575Y-25546832D01*
X41739727Y-25489986D01*
X41942645Y-25405935D01*
X42132855Y-25296116D01*
X42307104Y-25162410D01*
X42462410Y-25007104D01*
X42596116Y-24832855D01*
X42705935Y-24642645D01*
X42717299Y-24615211D01*
X42732655Y-24578137D01*
X42789986Y-24439727D01*
X42846832Y-24227575D01*
X42875500Y-24009818D01*
X42875500Y-23790182D01*
X42846832Y-23572425D01*
X42789986Y-23360273D01*
X42739499Y-23238386D01*
X42705936Y-23157356D01*
X42642071Y-23046740D01*
X42596116Y-22967145D01*
X42462410Y-22792896D01*
X42307104Y-22637590D01*
X42307099Y-22637586D01*
X42307097Y-22637584D01*
X42132855Y-22503884D01*
X41942643Y-22394063D01*
X41739732Y-22310016D01*
X41739731Y-22310015D01*
X41739727Y-22310014D01*
X41527575Y-22253168D01*
X41527572Y-22253167D01*
X41527570Y-22253167D01*
X41309819Y-22224500D01*
X41309818Y-22224500D01*
X41090182Y-22224500D01*
X41090180Y-22224500D01*
X40872432Y-22253167D01*
X40872427Y-22253167D01*
X40660280Y-22310012D01*
X40660267Y-22310016D01*
X40457356Y-22394063D01*
X40267144Y-22503884D01*
X40092902Y-22637584D01*
X39937584Y-22792902D01*
X39803884Y-22967144D01*
X39694063Y-23157356D01*
X39610016Y-23360267D01*
X39610012Y-23360280D01*
X39553167Y-23572427D01*
X39553167Y-23572432D01*
X39524500Y-23790180D01*
X37950000Y-23790180D01*
X37950000Y-23670138D01*
X37909371Y-23413626D01*
X37829117Y-23166626D01*
X37711207Y-22935214D01*
X37558549Y-22725098D01*
X37374901Y-22541450D01*
X37164785Y-22388792D01*
X36933373Y-22270882D01*
X36686374Y-22190628D01*
X36550000Y-22169028D01*
X36550000Y-22983519D01*
X36547936Y-22982665D01*
X36383718Y-22950000D01*
X36216282Y-22950000D01*
X36052064Y-22982665D01*
X36050000Y-22983519D01*
X36050000Y-22169028D01*
X36049999Y-22169028D01*
X35913625Y-22190628D01*
X35666626Y-22270882D01*
X35435212Y-22388793D01*
X35435208Y-22388795D01*
X35352449Y-22448924D01*
X35294259Y-22467831D01*
X35236068Y-22448923D01*
X35200104Y-22399423D01*
X35195636Y-22360203D01*
X35205277Y-22250003D01*
X35205277Y-22249996D01*
X35186208Y-22032030D01*
X35186207Y-22032027D01*
X35186207Y-22032023D01*
X35129575Y-21820670D01*
X35037102Y-21622362D01*
X34911598Y-21443123D01*
X34756877Y-21288402D01*
X34756873Y-21288399D01*
X34756872Y-21288398D01*
X34657435Y-21218772D01*
X34577639Y-21162898D01*
X34379330Y-21070425D01*
X34167977Y-21013793D01*
X34167976Y-21013792D01*
X34167969Y-21013791D01*
X33950003Y-20994723D01*
X33949997Y-20994723D01*
X33732030Y-21013791D01*
X33520666Y-21070426D01*
X33322372Y-21162892D01*
X33322364Y-21162896D01*
X33143127Y-21288398D01*
X32988398Y-21443127D01*
X32862896Y-21622364D01*
X32862892Y-21622372D01*
X32789724Y-21779282D01*
X32747996Y-21824030D01*
X32687935Y-21835705D01*
X32632482Y-21809847D01*
X32610276Y-21779282D01*
X32537107Y-21622372D01*
X32537103Y-21622364D01*
X32467457Y-21522899D01*
X32411598Y-21443123D01*
X32256877Y-21288402D01*
X32256873Y-21288399D01*
X32256872Y-21288398D01*
X32157435Y-21218772D01*
X32077639Y-21162898D01*
X31879330Y-21070425D01*
X31667977Y-21013793D01*
X31667976Y-21013792D01*
X31667969Y-21013791D01*
X31450003Y-20994723D01*
X31449997Y-20994723D01*
X31232030Y-21013791D01*
X31020666Y-21070426D01*
X30822372Y-21162892D01*
X30822364Y-21162896D01*
X30643127Y-21288398D01*
X30488400Y-21443125D01*
X30430695Y-21525536D01*
X30381829Y-21562358D01*
X30320653Y-21563425D01*
X30270534Y-21528330D01*
X30266720Y-21522899D01*
X30173435Y-21380117D01*
X29432962Y-22120589D01*
X29415925Y-22057007D01*
X29350099Y-21942993D01*
X29257007Y-21849901D01*
X29142993Y-21784075D01*
X29079407Y-21767037D01*
X29820055Y-21026389D01*
X29820055Y-21026388D01*
X29773237Y-20989948D01*
X29773234Y-20989946D01*
X29582208Y-20886568D01*
X29540030Y-20842244D01*
X29531960Y-20781593D01*
X29561081Y-20727782D01*
X29616270Y-20701365D01*
X29629327Y-20700500D01*
X35309470Y-20700500D01*
X35309876Y-20700458D01*
X35324419Y-20700449D01*
X35470359Y-20671217D01*
X35607715Y-20613892D01*
X35607715Y-20613891D01*
X35607717Y-20613891D01*
X35649741Y-20585566D01*
X35731137Y-20530706D01*
X35835818Y-20424900D01*
X35847540Y-20407124D01*
X35847808Y-20406788D01*
X35852504Y-20399657D01*
X35872302Y-20369591D01*
X35882340Y-20356781D01*
X35921225Y-20314794D01*
X35946893Y-20294915D01*
X35954103Y-20291030D01*
X35989962Y-20271706D01*
X36020682Y-20261198D01*
X36076946Y-20251841D01*
X36093188Y-20250500D01*
X46955830Y-20250500D01*
X46992211Y-20250500D01*
X47007696Y-20251719D01*
G37*
%TD.AperFunction*%
%TA.AperFunction,Conductor*%
G36*
X26822880Y-20251841D02*
G01*
X26879305Y-20261225D01*
X26910028Y-20271733D01*
X26953089Y-20294938D01*
X26978759Y-20314820D01*
X27017748Y-20356919D01*
X27027796Y-20369740D01*
X27052050Y-20406572D01*
X27052308Y-20406898D01*
X27064181Y-20424900D01*
X27064184Y-20424903D01*
X27168862Y-20530706D01*
X27292273Y-20613885D01*
X27292275Y-20613886D01*
X27292284Y-20613892D01*
X27429641Y-20671218D01*
X27575581Y-20700450D01*
X27590168Y-20700459D01*
X27590568Y-20700500D01*
X28270673Y-20700500D01*
X28328864Y-20719407D01*
X28364828Y-20768907D01*
X28364828Y-20830093D01*
X28328864Y-20879593D01*
X28317792Y-20886568D01*
X28126767Y-20989945D01*
X28079943Y-21026388D01*
X28820592Y-21767037D01*
X28757007Y-21784075D01*
X28642993Y-21849901D01*
X28549901Y-21942993D01*
X28484075Y-22057007D01*
X28467037Y-22120591D01*
X27726564Y-21380118D01*
X27626268Y-21533632D01*
X27526412Y-21761283D01*
X27465386Y-22002263D01*
X27446812Y-22226427D01*
X27423164Y-22282858D01*
X27370863Y-22314611D01*
X27309887Y-22309559D01*
X27303206Y-22306462D01*
X27233381Y-22270885D01*
X26986374Y-22190628D01*
X26850000Y-22169028D01*
X26850000Y-22983519D01*
X26847936Y-22982665D01*
X26683718Y-22950000D01*
X26516282Y-22950000D01*
X26352064Y-22982665D01*
X26350000Y-22983519D01*
X26350000Y-22169028D01*
X26349999Y-22169028D01*
X26213625Y-22190628D01*
X25966626Y-22270882D01*
X25735214Y-22388792D01*
X25525098Y-22541450D01*
X25341450Y-22725098D01*
X25188792Y-22935214D01*
X25070882Y-23166626D01*
X24990628Y-23413626D01*
X24950000Y-23670138D01*
X24950000Y-23799999D01*
X24950001Y-23800000D01*
X25750000Y-23800000D01*
X25750000Y-24300000D01*
X24950001Y-24300000D01*
X24950000Y-24300001D01*
X24950000Y-24429861D01*
X24990628Y-24686373D01*
X25070882Y-24933373D01*
X25188792Y-25164785D01*
X25317771Y-25342309D01*
X25336678Y-25400500D01*
X25317771Y-25458691D01*
X25268271Y-25494655D01*
X25237678Y-25499500D01*
X20507789Y-25499500D01*
X20492303Y-25498281D01*
X20438388Y-25489742D01*
X20408928Y-25480170D01*
X20367320Y-25458969D01*
X20342262Y-25440764D01*
X20309235Y-25407737D01*
X20291030Y-25382679D01*
X20287067Y-25374901D01*
X20269827Y-25341067D01*
X20260259Y-25311620D01*
X20251717Y-25257685D01*
X20250500Y-25242210D01*
X20250500Y-22390180D01*
X20474500Y-22390180D01*
X20474500Y-22609819D01*
X20503167Y-22827567D01*
X20503167Y-22827572D01*
X20560012Y-23039719D01*
X20560016Y-23039732D01*
X20644063Y-23242643D01*
X20753884Y-23432855D01*
X20887584Y-23607097D01*
X20887586Y-23607099D01*
X20887590Y-23607104D01*
X21042896Y-23762410D01*
X21042900Y-23762413D01*
X21042902Y-23762415D01*
X21152660Y-23846635D01*
X21217145Y-23896116D01*
X21241309Y-23910067D01*
X21407356Y-24005936D01*
X21515362Y-24050672D01*
X21610273Y-24089986D01*
X21822425Y-24146832D01*
X22040182Y-24175500D01*
X22040183Y-24175500D01*
X22259817Y-24175500D01*
X22259818Y-24175500D01*
X22477575Y-24146832D01*
X22689727Y-24089986D01*
X22892645Y-24005935D01*
X23082855Y-23896116D01*
X23257104Y-23762410D01*
X23412410Y-23607104D01*
X23546116Y-23432855D01*
X23655935Y-23242645D01*
X23739986Y-23039727D01*
X23796832Y-22827575D01*
X23825500Y-22609818D01*
X23825500Y-22390182D01*
X23796832Y-22172425D01*
X23739986Y-21960273D01*
X23694269Y-21849901D01*
X23655936Y-21757356D01*
X23601025Y-21662250D01*
X23546116Y-21567145D01*
X23412410Y-21392896D01*
X23257104Y-21237590D01*
X23257099Y-21237586D01*
X23257097Y-21237584D01*
X23082855Y-21103884D01*
X22892643Y-20994063D01*
X22689732Y-20910016D01*
X22689731Y-20910015D01*
X22689727Y-20910014D01*
X22477575Y-20853168D01*
X22477572Y-20853167D01*
X22477570Y-20853167D01*
X22259819Y-20824500D01*
X22259818Y-20824500D01*
X22040182Y-20824500D01*
X22040180Y-20824500D01*
X21822432Y-20853167D01*
X21822427Y-20853167D01*
X21610280Y-20910012D01*
X21610267Y-20910016D01*
X21407356Y-20994063D01*
X21217144Y-21103884D01*
X21042902Y-21237584D01*
X20887584Y-21392902D01*
X20753884Y-21567144D01*
X20644063Y-21757356D01*
X20560016Y-21960267D01*
X20560012Y-21960280D01*
X20503167Y-22172427D01*
X20503167Y-22172432D01*
X20474500Y-22390180D01*
X20250500Y-22390180D01*
X20250500Y-20507789D01*
X20251717Y-20492315D01*
X20260259Y-20438377D01*
X20269826Y-20408934D01*
X20291032Y-20367316D01*
X20309232Y-20342265D01*
X20342265Y-20309232D01*
X20367316Y-20291032D01*
X20408934Y-20269826D01*
X20438377Y-20260259D01*
X20492315Y-20251717D01*
X20507789Y-20250500D01*
X20544170Y-20250500D01*
X26806638Y-20250500D01*
X26822880Y-20251841D01*
G37*
%TD.AperFunction*%
%TD*%
M02*
