%TF.GenerationSoftware,KiCad,Pcbnew,8.0.9*%
%TF.CreationDate,2025-07-15T23:29:25+09:00*%
%TF.ProjectId,KPUEncoderPCB,4b505545-6e63-46f6-9465-725043422e6b,rev?*%
%TF.SameCoordinates,Original*%
%TF.FileFunction,Drillmap*%
%TF.FilePolarity,Positive*%
%FSLAX45Y45*%
G04 Gerber Fmt 4.5, Leading zero omitted, Abs format (unit mm)*
G04 Created by KiCad (PCBNEW 8.0.9) date 2025-07-15 23:29:25*
%MOMM*%
%LPD*%
G01*
G04 APERTURE LIST*
%ADD10C,0.050000*%
%ADD11C,0.200000*%
%ADD12C,0.285000*%
G04 APERTURE END LIST*
D10*
X4700000Y-2000000D02*
X3608516Y-2000000D01*
X4700000Y-2000000D02*
G75*
G02*
X4750000Y-2050000I0J-50000D01*
G01*
X4750000Y-2820000D02*
X4750000Y-2050000D01*
X4750000Y-2820000D02*
G75*
G02*
X4700000Y-2870000I-50000J0D01*
G01*
X3660000Y-2870000D02*
X4700000Y-2870000D01*
X3660000Y-2870000D02*
G75*
G02*
X3430190Y-2774810I0J325001D01*
G01*
X3288959Y-2633579D02*
X3430190Y-2774810D01*
X3147538Y-2575000D02*
G75*
G02*
X3288959Y-2633579I0J-200000D01*
G01*
X2050000Y-2575000D02*
X3147538Y-2575000D01*
X2050000Y-2575000D02*
G75*
G02*
X2000000Y-2525000I0J50000D01*
G01*
X2000000Y-2050000D02*
X2000000Y-2525000D01*
X2000000Y-2050000D02*
G75*
G02*
X2050000Y-2000000I50000J0D01*
G01*
X2681484Y-2000000D02*
X2050000Y-2000000D01*
X2681484Y-2000000D02*
G75*
G02*
X2723242Y-2022500I0J-50000D01*
G01*
X2765000Y-2045000D02*
G75*
G02*
X2723242Y-2022500I0J50000D01*
G01*
X3525000Y-2045000D02*
X2765000Y-2045000D01*
X3566758Y-2022500D02*
G75*
G02*
X3525000Y-2045000I-41758J27500D01*
G01*
X3566758Y-2022500D02*
G75*
G02*
X3608516Y-2000000I41759J-27500D01*
G01*
D11*
D12*
X2072500Y-2107500D02*
X2357500Y-2392500D01*
X2357500Y-2107500D02*
X2072500Y-2392500D01*
X3977500Y-2247500D02*
X4262500Y-2532500D01*
X4262500Y-2247500D02*
X3977500Y-2532500D01*
D11*
X2258277Y-3183984D02*
X2258277Y-2983984D01*
X2258277Y-2983984D02*
X2305896Y-2983984D01*
X2305896Y-2983984D02*
X2334467Y-2993508D01*
X2334467Y-2993508D02*
X2353515Y-3012555D01*
X2353515Y-3012555D02*
X2363039Y-3031603D01*
X2363039Y-3031603D02*
X2372563Y-3069698D01*
X2372563Y-3069698D02*
X2372563Y-3098269D01*
X2372563Y-3098269D02*
X2363039Y-3136365D01*
X2363039Y-3136365D02*
X2353515Y-3155412D01*
X2353515Y-3155412D02*
X2334467Y-3174460D01*
X2334467Y-3174460D02*
X2305896Y-3183984D01*
X2305896Y-3183984D02*
X2258277Y-3183984D01*
X2458277Y-3183984D02*
X2458277Y-3050650D01*
X2458277Y-3088746D02*
X2467801Y-3069698D01*
X2467801Y-3069698D02*
X2477324Y-3060174D01*
X2477324Y-3060174D02*
X2496372Y-3050650D01*
X2496372Y-3050650D02*
X2515420Y-3050650D01*
X2582086Y-3183984D02*
X2582086Y-3050650D01*
X2582086Y-2983984D02*
X2572563Y-2993508D01*
X2572563Y-2993508D02*
X2582086Y-3003031D01*
X2582086Y-3003031D02*
X2591610Y-2993508D01*
X2591610Y-2993508D02*
X2582086Y-2983984D01*
X2582086Y-2983984D02*
X2582086Y-3003031D01*
X2705896Y-3183984D02*
X2686848Y-3174460D01*
X2686848Y-3174460D02*
X2677324Y-3155412D01*
X2677324Y-3155412D02*
X2677324Y-2983984D01*
X2810658Y-3183984D02*
X2791610Y-3174460D01*
X2791610Y-3174460D02*
X2782086Y-3155412D01*
X2782086Y-3155412D02*
X2782086Y-2983984D01*
X3039229Y-3183984D02*
X3039229Y-2983984D01*
X3039229Y-2983984D02*
X3105896Y-3126841D01*
X3105896Y-3126841D02*
X3172562Y-2983984D01*
X3172562Y-2983984D02*
X3172562Y-3183984D01*
X3353515Y-3183984D02*
X3353515Y-3079222D01*
X3353515Y-3079222D02*
X3343991Y-3060174D01*
X3343991Y-3060174D02*
X3324943Y-3050650D01*
X3324943Y-3050650D02*
X3286848Y-3050650D01*
X3286848Y-3050650D02*
X3267801Y-3060174D01*
X3353515Y-3174460D02*
X3334467Y-3183984D01*
X3334467Y-3183984D02*
X3286848Y-3183984D01*
X3286848Y-3183984D02*
X3267801Y-3174460D01*
X3267801Y-3174460D02*
X3258277Y-3155412D01*
X3258277Y-3155412D02*
X3258277Y-3136365D01*
X3258277Y-3136365D02*
X3267801Y-3117317D01*
X3267801Y-3117317D02*
X3286848Y-3107793D01*
X3286848Y-3107793D02*
X3334467Y-3107793D01*
X3334467Y-3107793D02*
X3353515Y-3098269D01*
X3448753Y-3050650D02*
X3448753Y-3250650D01*
X3448753Y-3060174D02*
X3467801Y-3050650D01*
X3467801Y-3050650D02*
X3505896Y-3050650D01*
X3505896Y-3050650D02*
X3524943Y-3060174D01*
X3524943Y-3060174D02*
X3534467Y-3069698D01*
X3534467Y-3069698D02*
X3543991Y-3088746D01*
X3543991Y-3088746D02*
X3543991Y-3145888D01*
X3543991Y-3145888D02*
X3534467Y-3164936D01*
X3534467Y-3164936D02*
X3524943Y-3174460D01*
X3524943Y-3174460D02*
X3505896Y-3183984D01*
X3505896Y-3183984D02*
X3467801Y-3183984D01*
X3467801Y-3183984D02*
X3448753Y-3174460D01*
X3629705Y-3164936D02*
X3639229Y-3174460D01*
X3639229Y-3174460D02*
X3629705Y-3183984D01*
X3629705Y-3183984D02*
X3620182Y-3174460D01*
X3620182Y-3174460D02*
X3629705Y-3164936D01*
X3629705Y-3164936D02*
X3629705Y-3183984D01*
X3629705Y-3060174D02*
X3639229Y-3069698D01*
X3639229Y-3069698D02*
X3629705Y-3079222D01*
X3629705Y-3079222D02*
X3620182Y-3069698D01*
X3620182Y-3069698D02*
X3629705Y-3060174D01*
X3629705Y-3060174D02*
X3629705Y-3079222D01*
X1797500Y-3412500D02*
X1997500Y-3612500D01*
X1997500Y-3412500D02*
X1797500Y-3612500D01*
X2248753Y-3423031D02*
X2258277Y-3413508D01*
X2258277Y-3413508D02*
X2277324Y-3403984D01*
X2277324Y-3403984D02*
X2324944Y-3403984D01*
X2324944Y-3403984D02*
X2343991Y-3413508D01*
X2343991Y-3413508D02*
X2353515Y-3423031D01*
X2353515Y-3423031D02*
X2363039Y-3442079D01*
X2363039Y-3442079D02*
X2363039Y-3461127D01*
X2363039Y-3461127D02*
X2353515Y-3489698D01*
X2353515Y-3489698D02*
X2239229Y-3603984D01*
X2239229Y-3603984D02*
X2363039Y-3603984D01*
X2448753Y-3584936D02*
X2458277Y-3594460D01*
X2458277Y-3594460D02*
X2448753Y-3603984D01*
X2448753Y-3603984D02*
X2439229Y-3594460D01*
X2439229Y-3594460D02*
X2448753Y-3584936D01*
X2448753Y-3584936D02*
X2448753Y-3603984D01*
X2572563Y-3489698D02*
X2553515Y-3480174D01*
X2553515Y-3480174D02*
X2543991Y-3470650D01*
X2543991Y-3470650D02*
X2534467Y-3451603D01*
X2534467Y-3451603D02*
X2534467Y-3442079D01*
X2534467Y-3442079D02*
X2543991Y-3423031D01*
X2543991Y-3423031D02*
X2553515Y-3413508D01*
X2553515Y-3413508D02*
X2572563Y-3403984D01*
X2572563Y-3403984D02*
X2610658Y-3403984D01*
X2610658Y-3403984D02*
X2629705Y-3413508D01*
X2629705Y-3413508D02*
X2639229Y-3423031D01*
X2639229Y-3423031D02*
X2648753Y-3442079D01*
X2648753Y-3442079D02*
X2648753Y-3451603D01*
X2648753Y-3451603D02*
X2639229Y-3470650D01*
X2639229Y-3470650D02*
X2629705Y-3480174D01*
X2629705Y-3480174D02*
X2610658Y-3489698D01*
X2610658Y-3489698D02*
X2572563Y-3489698D01*
X2572563Y-3489698D02*
X2553515Y-3499222D01*
X2553515Y-3499222D02*
X2543991Y-3508746D01*
X2543991Y-3508746D02*
X2534467Y-3527793D01*
X2534467Y-3527793D02*
X2534467Y-3565888D01*
X2534467Y-3565888D02*
X2543991Y-3584936D01*
X2543991Y-3584936D02*
X2553515Y-3594460D01*
X2553515Y-3594460D02*
X2572563Y-3603984D01*
X2572563Y-3603984D02*
X2610658Y-3603984D01*
X2610658Y-3603984D02*
X2629705Y-3594460D01*
X2629705Y-3594460D02*
X2639229Y-3584936D01*
X2639229Y-3584936D02*
X2648753Y-3565888D01*
X2648753Y-3565888D02*
X2648753Y-3527793D01*
X2648753Y-3527793D02*
X2639229Y-3508746D01*
X2639229Y-3508746D02*
X2629705Y-3499222D01*
X2629705Y-3499222D02*
X2610658Y-3489698D01*
X2829705Y-3403984D02*
X2734467Y-3403984D01*
X2734467Y-3403984D02*
X2724944Y-3499222D01*
X2724944Y-3499222D02*
X2734467Y-3489698D01*
X2734467Y-3489698D02*
X2753515Y-3480174D01*
X2753515Y-3480174D02*
X2801134Y-3480174D01*
X2801134Y-3480174D02*
X2820182Y-3489698D01*
X2820182Y-3489698D02*
X2829705Y-3499222D01*
X2829705Y-3499222D02*
X2839229Y-3518269D01*
X2839229Y-3518269D02*
X2839229Y-3565888D01*
X2839229Y-3565888D02*
X2829705Y-3584936D01*
X2829705Y-3584936D02*
X2820182Y-3594460D01*
X2820182Y-3594460D02*
X2801134Y-3603984D01*
X2801134Y-3603984D02*
X2753515Y-3603984D01*
X2753515Y-3603984D02*
X2734467Y-3594460D01*
X2734467Y-3594460D02*
X2724944Y-3584936D01*
X2963039Y-3403984D02*
X2982086Y-3403984D01*
X2982086Y-3403984D02*
X3001134Y-3413508D01*
X3001134Y-3413508D02*
X3010658Y-3423031D01*
X3010658Y-3423031D02*
X3020182Y-3442079D01*
X3020182Y-3442079D02*
X3029705Y-3480174D01*
X3029705Y-3480174D02*
X3029705Y-3527793D01*
X3029705Y-3527793D02*
X3020182Y-3565888D01*
X3020182Y-3565888D02*
X3010658Y-3584936D01*
X3010658Y-3584936D02*
X3001134Y-3594460D01*
X3001134Y-3594460D02*
X2982086Y-3603984D01*
X2982086Y-3603984D02*
X2963039Y-3603984D01*
X2963039Y-3603984D02*
X2943991Y-3594460D01*
X2943991Y-3594460D02*
X2934467Y-3584936D01*
X2934467Y-3584936D02*
X2924943Y-3565888D01*
X2924943Y-3565888D02*
X2915420Y-3527793D01*
X2915420Y-3527793D02*
X2915420Y-3480174D01*
X2915420Y-3480174D02*
X2924943Y-3442079D01*
X2924943Y-3442079D02*
X2934467Y-3423031D01*
X2934467Y-3423031D02*
X2943991Y-3413508D01*
X2943991Y-3413508D02*
X2963039Y-3403984D01*
X3115420Y-3603984D02*
X3115420Y-3470650D01*
X3115420Y-3489698D02*
X3124943Y-3480174D01*
X3124943Y-3480174D02*
X3143991Y-3470650D01*
X3143991Y-3470650D02*
X3172563Y-3470650D01*
X3172563Y-3470650D02*
X3191610Y-3480174D01*
X3191610Y-3480174D02*
X3201134Y-3499222D01*
X3201134Y-3499222D02*
X3201134Y-3603984D01*
X3201134Y-3499222D02*
X3210658Y-3480174D01*
X3210658Y-3480174D02*
X3229705Y-3470650D01*
X3229705Y-3470650D02*
X3258277Y-3470650D01*
X3258277Y-3470650D02*
X3277324Y-3480174D01*
X3277324Y-3480174D02*
X3286848Y-3499222D01*
X3286848Y-3499222D02*
X3286848Y-3603984D01*
X3382086Y-3603984D02*
X3382086Y-3470650D01*
X3382086Y-3489698D02*
X3391610Y-3480174D01*
X3391610Y-3480174D02*
X3410658Y-3470650D01*
X3410658Y-3470650D02*
X3439229Y-3470650D01*
X3439229Y-3470650D02*
X3458277Y-3480174D01*
X3458277Y-3480174D02*
X3467801Y-3499222D01*
X3467801Y-3499222D02*
X3467801Y-3603984D01*
X3467801Y-3499222D02*
X3477324Y-3480174D01*
X3477324Y-3480174D02*
X3496372Y-3470650D01*
X3496372Y-3470650D02*
X3524943Y-3470650D01*
X3524943Y-3470650D02*
X3543991Y-3480174D01*
X3543991Y-3480174D02*
X3553515Y-3499222D01*
X3553515Y-3499222D02*
X3553515Y-3603984D01*
X3943991Y-3394460D02*
X3772563Y-3651603D01*
X4201134Y-3403984D02*
X4220182Y-3403984D01*
X4220182Y-3403984D02*
X4239229Y-3413508D01*
X4239229Y-3413508D02*
X4248753Y-3423031D01*
X4248753Y-3423031D02*
X4258277Y-3442079D01*
X4258277Y-3442079D02*
X4267801Y-3480174D01*
X4267801Y-3480174D02*
X4267801Y-3527793D01*
X4267801Y-3527793D02*
X4258277Y-3565888D01*
X4258277Y-3565888D02*
X4248753Y-3584936D01*
X4248753Y-3584936D02*
X4239229Y-3594460D01*
X4239229Y-3594460D02*
X4220182Y-3603984D01*
X4220182Y-3603984D02*
X4201134Y-3603984D01*
X4201134Y-3603984D02*
X4182086Y-3594460D01*
X4182086Y-3594460D02*
X4172563Y-3584936D01*
X4172563Y-3584936D02*
X4163039Y-3565888D01*
X4163039Y-3565888D02*
X4153515Y-3527793D01*
X4153515Y-3527793D02*
X4153515Y-3480174D01*
X4153515Y-3480174D02*
X4163039Y-3442079D01*
X4163039Y-3442079D02*
X4172563Y-3423031D01*
X4172563Y-3423031D02*
X4182086Y-3413508D01*
X4182086Y-3413508D02*
X4201134Y-3403984D01*
X4353515Y-3584936D02*
X4363039Y-3594460D01*
X4363039Y-3594460D02*
X4353515Y-3603984D01*
X4353515Y-3603984D02*
X4343991Y-3594460D01*
X4343991Y-3594460D02*
X4353515Y-3584936D01*
X4353515Y-3584936D02*
X4353515Y-3603984D01*
X4553515Y-3603984D02*
X4439229Y-3603984D01*
X4496372Y-3603984D02*
X4496372Y-3403984D01*
X4496372Y-3403984D02*
X4477325Y-3432555D01*
X4477325Y-3432555D02*
X4458277Y-3451603D01*
X4458277Y-3451603D02*
X4439229Y-3461127D01*
X4743991Y-3603984D02*
X4629706Y-3603984D01*
X4686848Y-3603984D02*
X4686848Y-3403984D01*
X4686848Y-3403984D02*
X4667801Y-3432555D01*
X4667801Y-3432555D02*
X4648753Y-3451603D01*
X4648753Y-3451603D02*
X4629706Y-3461127D01*
X4820182Y-3423031D02*
X4829706Y-3413508D01*
X4829706Y-3413508D02*
X4848753Y-3403984D01*
X4848753Y-3403984D02*
X4896372Y-3403984D01*
X4896372Y-3403984D02*
X4915420Y-3413508D01*
X4915420Y-3413508D02*
X4924944Y-3423031D01*
X4924944Y-3423031D02*
X4934468Y-3442079D01*
X4934468Y-3442079D02*
X4934468Y-3461127D01*
X4934468Y-3461127D02*
X4924944Y-3489698D01*
X4924944Y-3489698D02*
X4810658Y-3603984D01*
X4810658Y-3603984D02*
X4934468Y-3603984D01*
X5010658Y-3423031D02*
X5020182Y-3413508D01*
X5020182Y-3413508D02*
X5039229Y-3403984D01*
X5039229Y-3403984D02*
X5086849Y-3403984D01*
X5086849Y-3403984D02*
X5105896Y-3413508D01*
X5105896Y-3413508D02*
X5115420Y-3423031D01*
X5115420Y-3423031D02*
X5124944Y-3442079D01*
X5124944Y-3442079D02*
X5124944Y-3461127D01*
X5124944Y-3461127D02*
X5115420Y-3489698D01*
X5115420Y-3489698D02*
X5001134Y-3603984D01*
X5001134Y-3603984D02*
X5124944Y-3603984D01*
X5201134Y-3403984D02*
X5201134Y-3442079D01*
X5277325Y-3403984D02*
X5277325Y-3442079D01*
X5572563Y-3680174D02*
X5563039Y-3670650D01*
X5563039Y-3670650D02*
X5543991Y-3642079D01*
X5543991Y-3642079D02*
X5534468Y-3623031D01*
X5534468Y-3623031D02*
X5524944Y-3594460D01*
X5524944Y-3594460D02*
X5515420Y-3546841D01*
X5515420Y-3546841D02*
X5515420Y-3508746D01*
X5515420Y-3508746D02*
X5524944Y-3461127D01*
X5524944Y-3461127D02*
X5534468Y-3432555D01*
X5534468Y-3432555D02*
X5543991Y-3413508D01*
X5543991Y-3413508D02*
X5563039Y-3384936D01*
X5563039Y-3384936D02*
X5572563Y-3375412D01*
X5639229Y-3423031D02*
X5648753Y-3413508D01*
X5648753Y-3413508D02*
X5667801Y-3403984D01*
X5667801Y-3403984D02*
X5715420Y-3403984D01*
X5715420Y-3403984D02*
X5734468Y-3413508D01*
X5734468Y-3413508D02*
X5743991Y-3423031D01*
X5743991Y-3423031D02*
X5753515Y-3442079D01*
X5753515Y-3442079D02*
X5753515Y-3461127D01*
X5753515Y-3461127D02*
X5743991Y-3489698D01*
X5743991Y-3489698D02*
X5629706Y-3603984D01*
X5629706Y-3603984D02*
X5753515Y-3603984D01*
X5991610Y-3603984D02*
X5991610Y-3403984D01*
X6077325Y-3603984D02*
X6077325Y-3499222D01*
X6077325Y-3499222D02*
X6067801Y-3480174D01*
X6067801Y-3480174D02*
X6048753Y-3470650D01*
X6048753Y-3470650D02*
X6020182Y-3470650D01*
X6020182Y-3470650D02*
X6001134Y-3480174D01*
X6001134Y-3480174D02*
X5991610Y-3489698D01*
X6201134Y-3603984D02*
X6182087Y-3594460D01*
X6182087Y-3594460D02*
X6172563Y-3584936D01*
X6172563Y-3584936D02*
X6163039Y-3565888D01*
X6163039Y-3565888D02*
X6163039Y-3508746D01*
X6163039Y-3508746D02*
X6172563Y-3489698D01*
X6172563Y-3489698D02*
X6182087Y-3480174D01*
X6182087Y-3480174D02*
X6201134Y-3470650D01*
X6201134Y-3470650D02*
X6229706Y-3470650D01*
X6229706Y-3470650D02*
X6248753Y-3480174D01*
X6248753Y-3480174D02*
X6258277Y-3489698D01*
X6258277Y-3489698D02*
X6267801Y-3508746D01*
X6267801Y-3508746D02*
X6267801Y-3565888D01*
X6267801Y-3565888D02*
X6258277Y-3584936D01*
X6258277Y-3584936D02*
X6248753Y-3594460D01*
X6248753Y-3594460D02*
X6229706Y-3603984D01*
X6229706Y-3603984D02*
X6201134Y-3603984D01*
X6382087Y-3603984D02*
X6363039Y-3594460D01*
X6363039Y-3594460D02*
X6353515Y-3575412D01*
X6353515Y-3575412D02*
X6353515Y-3403984D01*
X6534468Y-3594460D02*
X6515420Y-3603984D01*
X6515420Y-3603984D02*
X6477325Y-3603984D01*
X6477325Y-3603984D02*
X6458277Y-3594460D01*
X6458277Y-3594460D02*
X6448753Y-3575412D01*
X6448753Y-3575412D02*
X6448753Y-3499222D01*
X6448753Y-3499222D02*
X6458277Y-3480174D01*
X6458277Y-3480174D02*
X6477325Y-3470650D01*
X6477325Y-3470650D02*
X6515420Y-3470650D01*
X6515420Y-3470650D02*
X6534468Y-3480174D01*
X6534468Y-3480174D02*
X6543991Y-3499222D01*
X6543991Y-3499222D02*
X6543991Y-3518269D01*
X6543991Y-3518269D02*
X6448753Y-3537317D01*
X6620182Y-3594460D02*
X6639230Y-3603984D01*
X6639230Y-3603984D02*
X6677325Y-3603984D01*
X6677325Y-3603984D02*
X6696372Y-3594460D01*
X6696372Y-3594460D02*
X6705896Y-3575412D01*
X6705896Y-3575412D02*
X6705896Y-3565888D01*
X6705896Y-3565888D02*
X6696372Y-3546841D01*
X6696372Y-3546841D02*
X6677325Y-3537317D01*
X6677325Y-3537317D02*
X6648753Y-3537317D01*
X6648753Y-3537317D02*
X6629706Y-3527793D01*
X6629706Y-3527793D02*
X6620182Y-3508746D01*
X6620182Y-3508746D02*
X6620182Y-3499222D01*
X6620182Y-3499222D02*
X6629706Y-3480174D01*
X6629706Y-3480174D02*
X6648753Y-3470650D01*
X6648753Y-3470650D02*
X6677325Y-3470650D01*
X6677325Y-3470650D02*
X6696372Y-3480174D01*
X6772563Y-3680174D02*
X6782087Y-3670650D01*
X6782087Y-3670650D02*
X6801134Y-3642079D01*
X6801134Y-3642079D02*
X6810658Y-3623031D01*
X6810658Y-3623031D02*
X6820182Y-3594460D01*
X6820182Y-3594460D02*
X6829706Y-3546841D01*
X6829706Y-3546841D02*
X6829706Y-3508746D01*
X6829706Y-3508746D02*
X6820182Y-3461127D01*
X6820182Y-3461127D02*
X6810658Y-3432555D01*
X6810658Y-3432555D02*
X6801134Y-3413508D01*
X6801134Y-3413508D02*
X6782087Y-3384936D01*
X6782087Y-3384936D02*
X6772563Y-3375412D01*
X7134468Y-3680174D02*
X7124944Y-3670650D01*
X7124944Y-3670650D02*
X7105896Y-3642079D01*
X7105896Y-3642079D02*
X7096372Y-3623031D01*
X7096372Y-3623031D02*
X7086849Y-3594460D01*
X7086849Y-3594460D02*
X7077325Y-3546841D01*
X7077325Y-3546841D02*
X7077325Y-3508746D01*
X7077325Y-3508746D02*
X7086849Y-3461127D01*
X7086849Y-3461127D02*
X7096372Y-3432555D01*
X7096372Y-3432555D02*
X7105896Y-3413508D01*
X7105896Y-3413508D02*
X7124944Y-3384936D01*
X7124944Y-3384936D02*
X7134468Y-3375412D01*
X7210658Y-3470650D02*
X7210658Y-3603984D01*
X7210658Y-3489698D02*
X7220182Y-3480174D01*
X7220182Y-3480174D02*
X7239230Y-3470650D01*
X7239230Y-3470650D02*
X7267801Y-3470650D01*
X7267801Y-3470650D02*
X7286849Y-3480174D01*
X7286849Y-3480174D02*
X7296372Y-3499222D01*
X7296372Y-3499222D02*
X7296372Y-3603984D01*
X7420182Y-3603984D02*
X7401134Y-3594460D01*
X7401134Y-3594460D02*
X7391611Y-3584936D01*
X7391611Y-3584936D02*
X7382087Y-3565888D01*
X7382087Y-3565888D02*
X7382087Y-3508746D01*
X7382087Y-3508746D02*
X7391611Y-3489698D01*
X7391611Y-3489698D02*
X7401134Y-3480174D01*
X7401134Y-3480174D02*
X7420182Y-3470650D01*
X7420182Y-3470650D02*
X7448753Y-3470650D01*
X7448753Y-3470650D02*
X7467801Y-3480174D01*
X7467801Y-3480174D02*
X7477325Y-3489698D01*
X7477325Y-3489698D02*
X7486849Y-3508746D01*
X7486849Y-3508746D02*
X7486849Y-3565888D01*
X7486849Y-3565888D02*
X7477325Y-3584936D01*
X7477325Y-3584936D02*
X7467801Y-3594460D01*
X7467801Y-3594460D02*
X7448753Y-3603984D01*
X7448753Y-3603984D02*
X7420182Y-3603984D01*
X7543992Y-3470650D02*
X7620182Y-3470650D01*
X7572563Y-3403984D02*
X7572563Y-3575412D01*
X7572563Y-3575412D02*
X7582087Y-3594460D01*
X7582087Y-3594460D02*
X7601134Y-3603984D01*
X7601134Y-3603984D02*
X7620182Y-3603984D01*
X7839230Y-3470650D02*
X7839230Y-3670650D01*
X7839230Y-3480174D02*
X7858277Y-3470650D01*
X7858277Y-3470650D02*
X7896373Y-3470650D01*
X7896373Y-3470650D02*
X7915420Y-3480174D01*
X7915420Y-3480174D02*
X7924944Y-3489698D01*
X7924944Y-3489698D02*
X7934468Y-3508746D01*
X7934468Y-3508746D02*
X7934468Y-3565888D01*
X7934468Y-3565888D02*
X7924944Y-3584936D01*
X7924944Y-3584936D02*
X7915420Y-3594460D01*
X7915420Y-3594460D02*
X7896373Y-3603984D01*
X7896373Y-3603984D02*
X7858277Y-3603984D01*
X7858277Y-3603984D02*
X7839230Y-3594460D01*
X8048753Y-3603984D02*
X8029706Y-3594460D01*
X8029706Y-3594460D02*
X8020182Y-3575412D01*
X8020182Y-3575412D02*
X8020182Y-3403984D01*
X8210658Y-3603984D02*
X8210658Y-3499222D01*
X8210658Y-3499222D02*
X8201134Y-3480174D01*
X8201134Y-3480174D02*
X8182087Y-3470650D01*
X8182087Y-3470650D02*
X8143992Y-3470650D01*
X8143992Y-3470650D02*
X8124944Y-3480174D01*
X8210658Y-3594460D02*
X8191611Y-3603984D01*
X8191611Y-3603984D02*
X8143992Y-3603984D01*
X8143992Y-3603984D02*
X8124944Y-3594460D01*
X8124944Y-3594460D02*
X8115420Y-3575412D01*
X8115420Y-3575412D02*
X8115420Y-3556365D01*
X8115420Y-3556365D02*
X8124944Y-3537317D01*
X8124944Y-3537317D02*
X8143992Y-3527793D01*
X8143992Y-3527793D02*
X8191611Y-3527793D01*
X8191611Y-3527793D02*
X8210658Y-3518269D01*
X8277325Y-3470650D02*
X8353515Y-3470650D01*
X8305896Y-3403984D02*
X8305896Y-3575412D01*
X8305896Y-3575412D02*
X8315420Y-3594460D01*
X8315420Y-3594460D02*
X8334468Y-3603984D01*
X8334468Y-3603984D02*
X8353515Y-3603984D01*
X8496373Y-3594460D02*
X8477325Y-3603984D01*
X8477325Y-3603984D02*
X8439230Y-3603984D01*
X8439230Y-3603984D02*
X8420182Y-3594460D01*
X8420182Y-3594460D02*
X8410658Y-3575412D01*
X8410658Y-3575412D02*
X8410658Y-3499222D01*
X8410658Y-3499222D02*
X8420182Y-3480174D01*
X8420182Y-3480174D02*
X8439230Y-3470650D01*
X8439230Y-3470650D02*
X8477325Y-3470650D01*
X8477325Y-3470650D02*
X8496373Y-3480174D01*
X8496373Y-3480174D02*
X8505896Y-3499222D01*
X8505896Y-3499222D02*
X8505896Y-3518269D01*
X8505896Y-3518269D02*
X8410658Y-3537317D01*
X8677325Y-3603984D02*
X8677325Y-3403984D01*
X8677325Y-3594460D02*
X8658277Y-3603984D01*
X8658277Y-3603984D02*
X8620182Y-3603984D01*
X8620182Y-3603984D02*
X8601135Y-3594460D01*
X8601135Y-3594460D02*
X8591611Y-3584936D01*
X8591611Y-3584936D02*
X8582087Y-3565888D01*
X8582087Y-3565888D02*
X8582087Y-3508746D01*
X8582087Y-3508746D02*
X8591611Y-3489698D01*
X8591611Y-3489698D02*
X8601135Y-3480174D01*
X8601135Y-3480174D02*
X8620182Y-3470650D01*
X8620182Y-3470650D02*
X8658277Y-3470650D01*
X8658277Y-3470650D02*
X8677325Y-3480174D01*
X8753516Y-3680174D02*
X8763039Y-3670650D01*
X8763039Y-3670650D02*
X8782087Y-3642079D01*
X8782087Y-3642079D02*
X8791611Y-3623031D01*
X8791611Y-3623031D02*
X8801135Y-3594460D01*
X8801135Y-3594460D02*
X8810658Y-3546841D01*
X8810658Y-3546841D02*
X8810658Y-3508746D01*
X8810658Y-3508746D02*
X8801135Y-3461127D01*
X8801135Y-3461127D02*
X8791611Y-3432555D01*
X8791611Y-3432555D02*
X8782087Y-3413508D01*
X8782087Y-3413508D02*
X8763039Y-3384936D01*
X8763039Y-3384936D02*
X8753516Y-3375412D01*
M02*
